<?xml version="1.0" encoding="utf-8"?>
<svg xmlns="http://www.w3.org/2000/svg" xmlns:xlink="http://www.w3.org/1999/xlink" xml:space="preserve" width="984" height="984" viewBox="0 0 984 984"><rect width="984" height="984" fill="#ffffff" x="0" y="0"/><g fill="#000000">
<g transform="translate(240,48) scale(4.12)"><path d="M6,5.5H3C1.6,5.5,0.5,4.4,0.5,3v0c0-1.4,1.1-2.5,2.5-2.5h3V5.5z"/></g>
<g transform="translate(264,48) scale(4.12)"><path d="M3,5.5H0v-5h3c1.4,0,2.5,1.1,2.5,2.5v0C5.5,4.4,4.4,5.5,3,5.5z"/></g>
<g transform="translate(336,48) scale(4.12)"><circle cx="3" cy="3" r="2.5"/></g>
<g transform="translate(384,48) scale(4.12)"><circle cx="3" cy="3" r="2.5"/></g>
<g transform="translate(432,48) scale(4.12)"><circle cx="3" cy="3" r="2.5"/></g>
<g transform="translate(480,48) scale(4.12)"><circle cx="3" cy="3" r="2.5"/></g>
<g transform="translate(528,48) scale(4.12)"><path d="M6,5.5H3C1.6,5.5,0.5,4.4,0.5,3v0c0-1.4,1.1-2.5,2.5-2.5h3V5.5z"/></g>
<g transform="translate(552,48) scale(4.12)"><rect y="0.5" width="6" height="5"/></g>
<g transform="translate(576,48) scale(4.12)"><rect y="0.5" width="6" height="5"/></g>
<g transform="translate(600,48) scale(4.12)"><path d="M3,5.5H0v-5h3c1.4,0,2.5,1.1,2.5,2.5v0C5.5,4.4,4.4,5.5,3,5.5z"/></g>
<g transform="translate(720,48) scale(4.12)"><circle cx="3" cy="3" r="2.5"/></g>
<g transform="translate(336,72) scale(4.12)"><path d="M6,5.5H3C1.6,5.5,0.5,4.4,0.5,3v0c0-1.4,1.1-2.5,2.5-2.5h3V5.5z"/></g>
<g transform="translate(360,72) scale(4.12)"><path d="M3,5.5H0v-5h3c1.4,0,2.5,1.1,2.5,2.5v0C5.5,4.4,4.4,5.5,3,5.5z"/></g>
<g transform="translate(456,72) scale(4.12)"><circle cx="3" cy="3" r="2.5"/></g>
<g transform="translate(648,72) scale(4.12)"><circle cx="3" cy="3" r="2.5"/></g>
<g transform="translate(696,72) scale(4.12)"><circle cx="3" cy="3" r="2.5"/></g>
<g transform="translate(288,96) scale(4.12)"><circle cx="3" cy="3" r="2.5"/></g>
<g transform="translate(384,96) scale(4.12)"><path d="M6,5.5H3C1.6,5.5,0.5,4.4,0.5,3v0c0-1.4,1.1-2.5,2.5-2.5h3V5.5z"/></g>
<g transform="translate(408,96) scale(4.12)"><rect y="0.5" width="6" height="5"/></g>
<g transform="translate(432,96) scale(4.12)"><rect y="0.5" width="6" height="5"/></g>
<g transform="translate(456,96) scale(4.12)"><path d="M3,5.5H0v-5h3c1.4,0,2.5,1.1,2.5,2.5v0C5.5,4.4,4.4,5.5,3,5.5z"/></g>
<g transform="translate(552,96) scale(4.12)"><circle cx="3" cy="3" r="2.5"/></g>
<g transform="translate(672,96) scale(4.12)"><circle cx="3" cy="3" r="2.5"/></g>
<g transform="translate(264,120) scale(4.12)"><path d="M6,5.5H3C1.6,5.5,0.5,4.4,0.5,3v0c0-1.4,1.1-2.5,2.5-2.5h3V5.5z"/></g>
<g transform="translate(288,120) scale(4.12)"><path d="M3,5.5H0v-5h3c1.4,0,2.5,1.1,2.5,2.5v0C5.5,4.4,4.4,5.5,3,5.5z"/></g>
<g transform="translate(336,120) scale(4.12)"><circle cx="3" cy="3" r="2.5"/></g>
<g transform="translate(432,120) scale(4.12)"><path d="M6,5.5H3C1.6,5.5,0.5,4.4,0.5,3v0c0-1.4,1.1-2.5,2.5-2.5h3V5.5z"/></g>
<g transform="translate(456,120) scale(4.12)"><rect y="0.5" width="6" height="5"/></g>
<g transform="translate(480,120) scale(4.12)"><rect y="0.5" width="6" height="5"/></g>
<g transform="translate(504,120) scale(4.12)"><rect y="0.5" width="6" height="5"/></g>
<g transform="translate(528,120) scale(4.12)"><path d="M3,5.5H0v-5h3c1.4,0,2.5,1.1,2.5,2.5v0C5.5,4.4,4.4,5.5,3,5.5z"/></g>
<g transform="translate(600,120) scale(4.12)"><path d="M6,5.5H3C1.6,5.5,0.5,4.4,0.5,3v0c0-1.4,1.1-2.5,2.5-2.5h3V5.5z"/></g>
<g transform="translate(624,120) scale(4.12)"><rect y="0.5" width="6" height="5"/></g>
<g transform="translate(648,120) scale(4.12)"><path d="M3,5.5H0v-5h3c1.4,0,2.5,1.1,2.5,2.5v0C5.5,4.4,4.4,5.5,3,5.5z"/></g>
<g transform="translate(696,120) scale(4.12)"><circle cx="3" cy="3" r="2.5"/></g>
<g transform="translate(240,144) scale(4.12)"><circle cx="3" cy="3" r="2.5"/></g>
<g transform="translate(288,144) scale(4.12)"><circle cx="3" cy="3" r="2.5"/></g>
<g transform="translate(336,144) scale(4.12)"><circle cx="3" cy="3" r="2.5"/></g>
<g transform="translate(384,144) scale(4.12)"><path d="M6,5.5H3C1.6,5.5,0.5,4.4,0.5,3v0c0-1.4,1.1-2.5,2.5-2.5h3V5.5z"/></g>
<g transform="translate(408,144) scale(4.12)"><path d="M3,5.5H0v-5h3c1.4,0,2.5,1.1,2.5,2.5v0C5.5,4.4,4.4,5.5,3,5.5z"/></g>
<g transform="translate(456,144) scale(4.12)"><circle cx="3" cy="3" r="2.5"/></g>
<g transform="translate(504,144) scale(4.12)"><path d="M6,5.5H3C1.6,5.5,0.5,4.4,0.5,3v0c0-1.4,1.1-2.5,2.5-2.5h3V5.5z"/></g>
<g transform="translate(528,144) scale(4.12)"><rect y="0.5" width="6" height="5"/></g>
<g transform="translate(552,144) scale(4.12)"><path d="M3,5.5H0v-5h3c1.4,0,2.5,1.1,2.5,2.5v0C5.5,4.4,4.4,5.5,3,5.5z"/></g>
<g transform="translate(600,144) scale(4.12)"><circle cx="3" cy="3" r="2.5"/></g>
<g transform="translate(240,168) scale(4.12)"><path d="M6,5.5H3C1.6,5.5,0.5,4.4,0.5,3v0c0-1.4,1.1-2.5,2.5-2.5h3V5.5z"/></g>
<g transform="translate(264,168) scale(4.12)"><path d="M3,5.5H0v-5h3c1.4,0,2.5,1.1,2.5,2.5v0C5.5,4.4,4.4,5.5,3,5.5z"/></g>
<g transform="translate(312,168) scale(4.12)"><circle cx="3" cy="3" r="2.5"/></g>
<g transform="translate(384,168) scale(4.12)"><circle cx="3" cy="3" r="2.5"/></g>
<g transform="translate(456,168) scale(4.12)"><path d="M6,5.5H3C1.6,5.5,0.5,4.4,0.5,3v0c0-1.4,1.1-2.5,2.5-2.5h3V5.5z"/></g>
<g transform="translate(480,168) scale(4.12)"><path d="M3,5.5H0v-5h3c1.4,0,2.5,1.1,2.5,2.5v0C5.5,4.4,4.4,5.5,3,5.5z"/></g>
<g transform="translate(648,168) scale(4.12)"><path d="M6,5.5H3C1.6,5.5,0.5,4.4,0.5,3v0c0-1.4,1.1-2.5,2.5-2.5h3V5.5z"/></g>
<g transform="translate(672,168) scale(4.12)"><rect y="0.5" width="6" height="5"/></g>
<g transform="translate(696,168) scale(4.12)"><rect y="0.5" width="6" height="5"/></g>
<g transform="translate(720,168) scale(4.12)"><path d="M3,5.5H0v-5h3c1.4,0,2.5,1.1,2.5,2.5v0C5.5,4.4,4.4,5.5,3,5.5z"/></g>
<g transform="translate(240,192) scale(4.12)"><circle cx="3" cy="3" r="2.5"/></g>
<g transform="translate(288,192) scale(4.12)"><circle cx="3" cy="3" r="2.5"/></g>
<g transform="translate(336,192) scale(4.12)"><circle cx="3" cy="3" r="2.5"/></g>
<g transform="translate(384,192) scale(4.12)"><circle cx="3" cy="3" r="2.5"/></g>
<g transform="translate(432,192) scale(4.12)"><circle cx="3" cy="3" r="2.5"/></g>
<g transform="translate(480,192) scale(4.12)"><circle cx="3" cy="3" r="2.5"/></g>
<g transform="translate(528,192) scale(4.12)"><circle cx="3" cy="3" r="2.5"/></g>
<g transform="translate(576,192) scale(4.12)"><circle cx="3" cy="3" r="2.5"/></g>
<g transform="translate(624,192) scale(4.12)"><circle cx="3" cy="3" r="2.5"/></g>
<g transform="translate(672,192) scale(4.12)"><circle cx="3" cy="3" r="2.5"/></g>
<g transform="translate(720,192) scale(4.12)"><circle cx="3" cy="3" r="2.5"/></g>
<g transform="translate(264,216) scale(4.12)"><circle cx="3" cy="3" r="2.5"/></g>
<g transform="translate(312,216) scale(4.12)"><circle cx="3" cy="3" r="2.5"/></g>
<g transform="translate(384,216) scale(4.12)"><path d="M6,5.5H3C1.6,5.5,0.5,4.4,0.5,3v0c0-1.4,1.1-2.5,2.5-2.5h3V5.5z"/></g>
<g transform="translate(408,216) scale(4.12)"><rect y="0.5" width="6" height="5"/></g>
<g transform="translate(432,216) scale(4.12)"><rect y="0.5" width="6" height="5"/></g>
<g transform="translate(456,216) scale(4.12)"><rect y="0.5" width="6" height="5"/></g>
<g transform="translate(480,216) scale(4.12)"><path d="M3,5.5H0v-5h3c1.4,0,2.5,1.1,2.5,2.5v0C5.5,4.4,4.4,5.5,3,5.5z"/></g>
<g transform="translate(552,216) scale(4.12)"><path d="M6,5.5H3C1.6,5.5,0.5,4.4,0.5,3v0c0-1.4,1.1-2.5,2.5-2.5h3V5.5z"/></g>
<g transform="translate(576,216) scale(4.12)"><path d="M3,5.5H0v-5h3c1.4,0,2.5,1.1,2.5,2.5v0C5.5,4.4,4.4,5.5,3,5.5z"/></g>
<g transform="translate(624,216) scale(4.12)"><circle cx="3" cy="3" r="2.5"/></g>
<g transform="translate(720,216) scale(4.12)"><circle cx="3" cy="3" r="2.5"/></g>
<g transform="translate(72,240) scale(4.12)"><path d="M6,5.5H3C1.6,5.5,0.5,4.4,0.5,3v0c0-1.4,1.1-2.5,2.5-2.5h3V5.5z"/></g>
<g transform="translate(96,240) scale(4.12)"><rect y="0.5" width="6" height="5"/></g>
<g transform="translate(120,240) scale(4.12)"><rect y="0.5" width="6" height="5"/></g>
<g transform="translate(144,240) scale(4.12)"><rect y="0.5" width="6" height="5"/></g>
<g transform="translate(168,240) scale(4.12)"><rect y="0.5" width="6" height="5"/></g>
<g transform="translate(192,240) scale(4.12)"><rect y="0.5" width="6" height="5"/></g>
<g transform="translate(216,240) scale(4.12)"><path d="M3,5.5H0v-5h3c1.4,0,2.5,1.1,2.5,2.5v0C5.5,4.4,4.4,5.5,3,5.5z"/></g>
<g transform="translate(312,240) scale(4.12)"><circle cx="3" cy="3" r="2.5"/></g>
<g transform="translate(360,240) scale(4.12)"><circle cx="3" cy="3" r="2.5"/></g>
<g transform="translate(408,240) scale(4.12)"><path d="M6,5.5H3C1.6,5.5,0.5,4.4,0.5,3v0c0-1.4,1.1-2.5,2.5-2.5h3V5.5z"/></g>
<g transform="translate(432,240) scale(4.12)"><path d="M3,5.5H0v-5h3c1.4,0,2.5,1.1,2.5,2.5v0C5.5,4.4,4.4,5.5,3,5.5z"/></g>
<g transform="translate(504,240) scale(4.12)"><path d="M6,5.5H3C1.6,5.5,0.5,4.4,0.5,3v0c0-1.4,1.1-2.5,2.5-2.5h3V5.5z"/></g>
<g transform="translate(528,240) scale(4.12)"><path d="M3,5.5H0v-5h3c1.4,0,2.5,1.1,2.5,2.5v0C5.5,4.4,4.4,5.5,3,5.5z"/></g>
<g transform="translate(648,240) scale(4.12)"><path d="M6,5.5H3C1.6,5.5,0.5,4.4,0.5,3v0c0-1.4,1.1-2.5,2.5-2.5h3V5.5z"/></g>
<g transform="translate(672,240) scale(4.12)"><path d="M3,5.5H0v-5h3c1.4,0,2.5,1.1,2.5,2.5v0C5.5,4.4,4.4,5.5,3,5.5z"/></g>
<g transform="translate(792,240) scale(4.12)"><path d="M6,5.5H3C1.6,5.5,0.5,4.4,0.5,3v0c0-1.4,1.1-2.5,2.5-2.5h3V5.5z"/></g>
<g transform="translate(816,240) scale(4.12)"><path d="M3,5.5H0v-5h3c1.4,0,2.5,1.1,2.5,2.5v0C5.5,4.4,4.4,5.5,3,5.5z"/></g>
<g transform="translate(912,240) scale(4.12)"><circle cx="3" cy="3" r="2.5"/></g>
<g transform="translate(72,264) scale(4.12)"><circle cx="3" cy="3" r="2.5"/></g>
<g transform="translate(120,264) scale(4.12)"><path d="M6,5.5H3C1.6,5.5,0.5,4.4,0.5,3v0c0-1.4,1.1-2.5,2.5-2.5h3V5.5z"/></g>
<g transform="translate(144,264) scale(4.12)"><rect y="0.5" width="6" height="5"/></g>
<g transform="translate(168,264) scale(4.12)"><path d="M3,5.5H0v-5h3c1.4,0,2.5,1.1,2.5,2.5v0C5.5,4.4,4.4,5.5,3,5.5z"/></g>
<g transform="translate(240,264) scale(4.12)"><circle cx="3" cy="3" r="2.5"/></g>
<g transform="translate(312,264) scale(4.12)"><circle cx="3" cy="3" r="2.5"/></g>
<g transform="translate(360,264) scale(4.12)"><circle cx="3" cy="3" r="2.5"/></g>
<g transform="translate(408,264) scale(4.12)"><path d="M6,5.5H3C1.6,5.5,0.5,4.4,0.5,3v0c0-1.4,1.1-2.5,2.5-2.5h3V5.5z"/></g>
<g transform="translate(432,264) scale(4.12)"><path d="M3,5.5H0v-5h3c1.4,0,2.5,1.1,2.5,2.5v0C5.5,4.4,4.4,5.5,3,5.5z"/></g>
<g transform="translate(480,264) scale(4.12)"><circle cx="3" cy="3" r="2.5"/></g>
<g transform="translate(528,264) scale(4.12)"><circle cx="3" cy="3" r="2.5"/></g>
<g transform="translate(600,264) scale(4.12)"><circle cx="3" cy="3" r="2.5"/></g>
<g transform="translate(648,264) scale(4.12)"><circle cx="3" cy="3" r="2.5"/></g>
<g transform="translate(720,264) scale(4.12)"><circle cx="3" cy="3" r="2.5"/></g>
<g transform="translate(792,264) scale(4.12)"><circle cx="3" cy="3" r="2.5"/></g>
<g transform="translate(840,264) scale(4.12)"><circle cx="3" cy="3" r="2.5"/></g>
<g transform="translate(888,264) scale(4.12)"><circle cx="3" cy="3" r="2.5"/></g>
<g transform="translate(72,288) scale(4.12)"><circle cx="3" cy="3" r="2.5"/></g>
<g transform="translate(144,288) scale(4.12)"><path d="M6,5.5H3C1.6,5.5,0.5,4.4,0.5,3v0c0-1.4,1.1-2.5,2.5-2.5h3V5.5z"/></g>
<g transform="translate(168,288) scale(4.12)"><rect y="0.5" width="6" height="5"/></g>
<g transform="translate(192,288) scale(4.12)"><rect y="0.5" width="6" height="5"/></g>
<g transform="translate(216,288) scale(4.12)"><path d="M3,5.5H0v-5h3c1.4,0,2.5,1.1,2.5,2.5v0C5.5,4.4,4.4,5.5,3,5.5z"/></g>
<g transform="translate(264,288) scale(4.12)"><circle cx="3" cy="3" r="2.5"/></g>
<g transform="translate(360,288) scale(4.12)"><path d="M6,5.5H3C1.6,5.5,0.5,4.4,0.5,3v0c0-1.4,1.1-2.5,2.5-2.5h3V5.5z"/></g>
<g transform="translate(384,288) scale(4.12)"><rect y="0.5" width="6" height="5"/></g>
<g transform="translate(408,288) scale(4.12)"><rect y="0.5" width="6" height="5"/></g>
<g transform="translate(432,288) scale(4.12)"><path d="M3,5.5H0v-5h3c1.4,0,2.5,1.1,2.5,2.5v0C5.5,4.4,4.4,5.5,3,5.5z"/></g>
<g transform="translate(504,288) scale(4.12)"><path d="M6,5.5H3C1.6,5.5,0.5,4.4,0.5,3v0c0-1.4,1.1-2.5,2.5-2.5h3V5.5z"/></g>
<g transform="translate(528,288) scale(4.12)"><path d="M3,5.5H0v-5h3c1.4,0,2.5,1.1,2.5,2.5v0C5.5,4.4,4.4,5.5,3,5.5z"/></g>
<g transform="translate(576,288) scale(4.12)"><circle cx="3" cy="3" r="2.5"/></g>
<g transform="translate(648,288) scale(4.12)"><path d="M6,5.5H3C1.6,5.5,0.5,4.4,0.5,3v0c0-1.4,1.1-2.5,2.5-2.5h3V5.5z"/></g>
<g transform="translate(672,288) scale(4.12)"><rect y="0.5" width="6" height="5"/></g>
<g transform="translate(696,288) scale(4.12)"><rect y="0.5" width="6" height="5"/></g>
<g transform="translate(720,288) scale(4.12)"><path d="M3,5.5H0v-5h3c1.4,0,2.5,1.1,2.5,2.5v0C5.5,4.4,4.4,5.5,3,5.5z"/></g>
<g transform="translate(768,288) scale(4.12)"><circle cx="3" cy="3" r="2.5"/></g>
<g transform="translate(864,288) scale(4.12)"><path d="M6,5.5H3C1.6,5.5,0.5,4.4,0.5,3v0c0-1.4,1.1-2.5,2.5-2.5h3V5.5z"/></g>
<g transform="translate(888,288) scale(4.12)"><rect y="0.5" width="6" height="5"/></g>
<g transform="translate(912,288) scale(4.12)"><path d="M3,5.5H0v-5h3c1.4,0,2.5,1.1,2.5,2.5v0C5.5,4.4,4.4,5.5,3,5.5z"/></g>
<g transform="translate(48,312) scale(4.12)"><circle cx="3" cy="3" r="2.5"/></g>
<g transform="translate(96,312) scale(4.12)"><circle cx="3" cy="3" r="2.5"/></g>
<g transform="translate(216,312) scale(4.12)"><circle cx="3" cy="3" r="2.5"/></g>
<g transform="translate(288,312) scale(4.12)"><path d="M6,5.5H3C1.6,5.5,0.5,4.4,0.5,3v0c0-1.4,1.1-2.5,2.5-2.5h3V5.5z"/></g>
<g transform="translate(312,312) scale(4.12)"><path d="M3,5.5H0v-5h3c1.4,0,2.5,1.1,2.5,2.5v0C5.5,4.4,4.4,5.5,3,5.5z"/></g>
<g transform="translate(360,312) scale(4.12)"><circle cx="3" cy="3" r="2.5"/></g>
<g transform="translate(480,312) scale(4.12)"><circle cx="3" cy="3" r="2.5"/></g>
<g transform="translate(552,312) scale(4.12)"><circle cx="3" cy="3" r="2.5"/></g>
<g transform="translate(672,312) scale(4.12)"><path d="M6,5.5H3C1.6,5.5,0.5,4.4,0.5,3v0c0-1.4,1.1-2.5,2.5-2.5h3V5.5z"/></g>
<g transform="translate(696,312) scale(4.12)"><path d="M3,5.5H0v-5h3c1.4,0,2.5,1.1,2.5,2.5v0C5.5,4.4,4.4,5.5,3,5.5z"/></g>
<g transform="translate(768,312) scale(4.12)"><path d="M6,5.5H3C1.6,5.5,0.5,4.4,0.5,3v0c0-1.4,1.1-2.5,2.5-2.5h3V5.5z"/></g>
<g transform="translate(792,312) scale(4.12)"><rect y="0.5" width="6" height="5"/></g>
<g transform="translate(816,312) scale(4.12)"><path d="M3,5.5H0v-5h3c1.4,0,2.5,1.1,2.5,2.5v0C5.5,4.4,4.4,5.5,3,5.5z"/></g>
<g transform="translate(888,312) scale(4.12)"><path d="M6,5.5H3C1.6,5.5,0.5,4.4,0.5,3v0c0-1.4,1.1-2.5,2.5-2.5h3V5.5z"/></g>
<g transform="translate(912,312) scale(4.12)"><path d="M3,5.5H0v-5h3c1.4,0,2.5,1.1,2.5,2.5v0C5.5,4.4,4.4,5.5,3,5.5z"/></g>
<g transform="translate(72,336) scale(4.12)"><circle cx="3" cy="3" r="2.5"/></g>
<g transform="translate(120,336) scale(4.12)"><circle cx="3" cy="3" r="2.5"/></g>
<g transform="translate(192,336) scale(4.12)"><path d="M6,5.5H3C1.6,5.5,0.5,4.4,0.5,3v0c0-1.4,1.1-2.5,2.5-2.5h3V5.5z"/></g>
<g transform="translate(216,336) scale(4.12)"><path d="M3,5.5H0v-5h3c1.4,0,2.5,1.1,2.5,2.5v0C5.5,4.4,4.4,5.5,3,5.5z"/></g>
<g transform="translate(264,336) scale(4.12)"><path d="M6,5.5H3C1.6,5.5,0.5,4.4,0.5,3v0c0-1.4,1.1-2.5,2.5-2.5h3V5.5z"/></g>
<g transform="translate(288,336) scale(4.12)"><path d="M3,5.5H0v-5h3c1.4,0,2.5,1.1,2.5,2.5v0C5.5,4.4,4.4,5.5,3,5.5z"/></g>
<g transform="translate(336,336) scale(4.12)"><circle cx="3" cy="3" r="2.5"/></g>
<g transform="translate(384,336) scale(4.12)"><circle cx="3" cy="3" r="2.5"/></g>
<g transform="translate(456,336) scale(4.12)"><path d="M6,5.5H3C1.6,5.5,0.5,4.4,0.5,3v0c0-1.4,1.1-2.5,2.5-2.5h3V5.5z"/></g>
<g transform="translate(480,336) scale(4.12)"><rect y="0.5" width="6" height="5"/></g>
<g transform="translate(504,336) scale(4.12)"><rect y="0.5" width="6" height="5"/></g>
<g transform="translate(528,336) scale(4.12)"><path d="M3,5.5H0v-5h3c1.4,0,2.5,1.1,2.5,2.5v0C5.5,4.4,4.4,5.5,3,5.5z"/></g>
<g transform="translate(576,336) scale(4.12)"><circle cx="3" cy="3" r="2.5"/></g>
<g transform="translate(624,336) scale(4.12)"><path d="M6,5.5H3C1.6,5.5,0.5,4.4,0.5,3v0c0-1.4,1.1-2.5,2.5-2.5h3V5.5z"/></g>
<g transform="translate(648,336) scale(4.12)"><rect y="0.5" width="6" height="5"/></g>
<g transform="translate(672,336) scale(4.12)"><rect y="0.5" width="6" height="5"/></g>
<g transform="translate(696,336) scale(4.12)"><rect y="0.5" width="6" height="5"/></g>
<g transform="translate(720,336) scale(4.12)"><rect y="0.5" width="6" height="5"/></g>
<g transform="translate(744,336) scale(4.12)"><rect y="0.5" width="6" height="5"/></g>
<g transform="translate(768,336) scale(4.12)"><rect y="0.5" width="6" height="5"/></g>
<g transform="translate(792,336) scale(4.12)"><rect y="0.5" width="6" height="5"/></g>
<g transform="translate(816,336) scale(4.12)"><rect y="0.5" width="6" height="5"/></g>
<g transform="translate(840,336) scale(4.12)"><rect y="0.5" width="6" height="5"/></g>
<g transform="translate(864,336) scale(4.12)"><path d="M3,5.5H0v-5h3c1.4,0,2.5,1.1,2.5,2.5v0C5.5,4.4,4.4,5.5,3,5.5z"/></g>
<g transform="translate(48,360) scale(4.12)"><path d="M6,5.5H3C1.6,5.5,0.5,4.4,0.5,3v0c0-1.4,1.1-2.5,2.5-2.5h3V5.5z"/></g>
<g transform="translate(72,360) scale(4.12)"><path d="M3,5.5H0v-5h3c1.4,0,2.5,1.1,2.5,2.5v0C5.5,4.4,4.4,5.5,3,5.5z"/></g>
<g transform="translate(120,360) scale(4.12)"><path d="M6,5.5H3C1.6,5.5,0.5,4.4,0.5,3v0c0-1.4,1.1-2.5,2.5-2.5h3V5.5z"/></g>
<g transform="translate(144,360) scale(4.12)"><path d="M3,5.5H0v-5h3c1.4,0,2.5,1.1,2.5,2.5v0C5.5,4.4,4.4,5.5,3,5.5z"/></g>
<g transform="translate(240,360) scale(4.12)"><path d="M6,5.5H3C1.6,5.5,0.5,4.4,0.5,3v0c0-1.4,1.1-2.5,2.5-2.5h3V5.5z"/></g>
<g transform="translate(264,360) scale(4.12)"><path d="M3,5.5H0v-5h3c1.4,0,2.5,1.1,2.5,2.5v0C5.5,4.4,4.4,5.5,3,5.5z"/></g>
<g transform="translate(384,360) scale(4.12)"><circle cx="3" cy="3" r="2.5"/></g>
<g transform="translate(432,360) scale(4.12)"><path d="M6,5.5H3C1.6,5.5,0.5,4.4,0.5,3v0c0-1.4,1.1-2.5,2.5-2.5h3V5.5z"/></g>
<g transform="translate(456,360) scale(4.12)"><path d="M3,5.5H0v-5h3c1.4,0,2.5,1.1,2.5,2.5v0C5.5,4.4,4.4,5.5,3,5.5z"/></g>
<g transform="translate(504,360) scale(4.12)"><circle cx="3" cy="3" r="2.5"/></g>
<g transform="translate(552,360) scale(4.12)"><circle cx="3" cy="3" r="2.5"/></g>
<g transform="translate(600,360) scale(4.12)"><circle cx="3" cy="3" r="2.5"/></g>
<g transform="translate(648,360) scale(4.12)"><circle cx="3" cy="3" r="2.5"/></g>
<g transform="translate(720,360) scale(4.12)"><path d="M6,5.5H3C1.6,5.5,0.5,4.4,0.5,3v0c0-1.4,1.1-2.5,2.5-2.5h3V5.5z"/></g>
<g transform="translate(744,360) scale(4.12)"><path d="M3,5.5H0v-5h3c1.4,0,2.5,1.1,2.5,2.5v0C5.5,4.4,4.4,5.5,3,5.5z"/></g>
<g transform="translate(792,360) scale(4.12)"><circle cx="3" cy="3" r="2.5"/></g>
<g transform="translate(840,360) scale(4.12)"><path d="M6,5.5H3C1.6,5.5,0.5,4.4,0.5,3v0c0-1.4,1.1-2.5,2.5-2.5h3V5.5z"/></g>
<g transform="translate(864,360) scale(4.12)"><path d="M3,5.5H0v-5h3c1.4,0,2.5,1.1,2.5,2.5v0C5.5,4.4,4.4,5.5,3,5.5z"/></g>
<g transform="translate(96,384) scale(4.12)"><path d="M6,5.5H3C1.6,5.5,0.5,4.4,0.5,3v0c0-1.4,1.1-2.5,2.5-2.5h3V5.5z"/></g>
<g transform="translate(120,384) scale(4.12)"><path d="M3,5.5H0v-5h3c1.4,0,2.5,1.1,2.5,2.5v0C5.5,4.4,4.4,5.5,3,5.5z"/></g>
<g transform="translate(192,384) scale(4.12)"><circle cx="3" cy="3" r="2.5"/></g>
<g transform="translate(240,384) scale(4.12)"><circle cx="3" cy="3" r="2.5"/></g>
<g transform="translate(288,384) scale(4.12)"><circle cx="3" cy="3" r="2.5"/></g>
<g transform="translate(336,384) scale(4.12)"><path d="M6,5.5H3C1.6,5.5,0.5,4.4,0.5,3v0c0-1.4,1.1-2.5,2.5-2.5h3V5.5z"/></g>
<g transform="translate(360,384) scale(4.12)"><path d="M3,5.5H0v-5h3c1.4,0,2.5,1.1,2.5,2.5v0C5.5,4.4,4.4,5.5,3,5.5z"/></g>
<g transform="translate(408,384) scale(4.12)"><path d="M6,5.5H3C1.6,5.5,0.5,4.4,0.5,3v0c0-1.4,1.1-2.5,2.5-2.5h3V5.5z"/></g>
<g transform="translate(432,384) scale(4.12)"><rect y="0.5" width="6" height="5"/></g>
<g transform="translate(456,384) scale(4.12)"><path d="M3,5.5H0v-5h3c1.4,0,2.5,1.1,2.5,2.5v0C5.5,4.4,4.4,5.5,3,5.5z"/></g>
<g transform="translate(504,384) scale(4.12)"><circle cx="3" cy="3" r="2.5"/></g>
<g transform="translate(624,384) scale(4.12)"><path d="M6,5.5H3C1.6,5.5,0.5,4.4,0.5,3v0c0-1.4,1.1-2.5,2.5-2.5h3V5.5z"/></g>
<g transform="translate(648,384) scale(4.12)"><path d="M3,5.5H0v-5h3c1.4,0,2.5,1.1,2.5,2.5v0C5.5,4.4,4.4,5.5,3,5.5z"/></g>
<g transform="translate(696,384) scale(4.12)"><circle cx="3" cy="3" r="2.5"/></g>
<g transform="translate(768,384) scale(4.12)"><path d="M6,5.5H3C1.6,5.5,0.5,4.4,0.5,3v0c0-1.4,1.1-2.5,2.5-2.5h3V5.5z"/></g>
<g transform="translate(792,384) scale(4.12)"><rect y="0.5" width="6" height="5"/></g>
<g transform="translate(816,384) scale(4.12)"><rect y="0.5" width="6" height="5"/></g>
<g transform="translate(840,384) scale(4.12)"><path d="M3,5.5H0v-5h3c1.4,0,2.5,1.1,2.5,2.5v0C5.5,4.4,4.4,5.5,3,5.5z"/></g>
<g transform="translate(888,384) scale(4.12)"><path d="M6,5.5H3C1.6,5.5,0.5,4.4,0.5,3v0c0-1.4,1.1-2.5,2.5-2.5h3V5.5z"/></g>
<g transform="translate(912,384) scale(4.12)"><path d="M3,5.5H0v-5h3c1.4,0,2.5,1.1,2.5,2.5v0C5.5,4.4,4.4,5.5,3,5.5z"/></g>
<g transform="translate(48,408) scale(4.12)"><circle cx="3" cy="3" r="2.5"/></g>
<g transform="translate(96,408) scale(4.12)"><path d="M6,5.5H3C1.6,5.5,0.5,4.4,0.5,3v0c0-1.4,1.1-2.5,2.5-2.5h3V5.5z"/></g>
<g transform="translate(120,408) scale(4.12)"><rect y="0.5" width="6" height="5"/></g>
<g transform="translate(144,408) scale(4.12)"><path d="M3,5.5H0v-5h3c1.4,0,2.5,1.1,2.5,2.5v0C5.5,4.4,4.4,5.5,3,5.5z"/></g>
<g transform="translate(312,408) scale(4.12)"><path d="M6,5.5H3C1.6,5.5,0.5,4.4,0.5,3v0c0-1.4,1.1-2.5,2.5-2.5h3V5.5z"/></g>
<g transform="translate(336,408) scale(4.12)"><path d="M3,5.5H0v-5h3c1.4,0,2.5,1.1,2.5,2.5v0C5.5,4.4,4.4,5.5,3,5.5z"/></g>
<g transform="translate(384,408) scale(4.12)"><path d="M6,5.5H3C1.6,5.5,0.5,4.4,0.5,3v0c0-1.4,1.1-2.5,2.5-2.5h3V5.5z"/></g>
<g transform="translate(408,408) scale(4.12)"><path d="M3,5.5H0v-5h3c1.4,0,2.5,1.1,2.5,2.5v0C5.5,4.4,4.4,5.5,3,5.5z"/></g>
<g transform="translate(504,408) scale(4.12)"><circle cx="3" cy="3" r="2.5"/></g>
<g transform="translate(552,408) scale(4.12)"><path d="M6,5.5H3C1.6,5.5,0.5,4.4,0.5,3v0c0-1.4,1.1-2.5,2.5-2.5h3V5.5z"/></g>
<g transform="translate(576,408) scale(4.12)"><rect y="0.5" width="6" height="5"/></g>
<g transform="translate(600,408) scale(4.12)"><path d="M3,5.5H0v-5h3c1.4,0,2.5,1.1,2.5,2.5v0C5.5,4.4,4.4,5.5,3,5.5z"/></g>
<g transform="translate(672,408) scale(4.12)"><path d="M6,5.5H3C1.6,5.5,0.5,4.4,0.5,3v0c0-1.4,1.1-2.5,2.5-2.5h3V5.5z"/></g>
<g transform="translate(696,408) scale(4.12)"><rect y="0.5" width="6" height="5"/></g>
<g transform="translate(720,408) scale(4.12)"><path d="M3,5.5H0v-5h3c1.4,0,2.5,1.1,2.5,2.5v0C5.5,4.4,4.4,5.5,3,5.5z"/></g>
<g transform="translate(792,408) scale(4.12)"><path d="M6,5.5H3C1.6,5.5,0.5,4.4,0.5,3v0c0-1.4,1.1-2.5,2.5-2.5h3V5.5z"/></g>
<g transform="translate(816,408) scale(4.12)"><path d="M3,5.5H0v-5h3c1.4,0,2.5,1.1,2.5,2.5v0C5.5,4.4,4.4,5.5,3,5.5z"/></g>
<g transform="translate(888,408) scale(4.12)"><path d="M6,5.5H3C1.6,5.5,0.5,4.4,0.5,3v0c0-1.4,1.1-2.5,2.5-2.5h3V5.5z"/></g>
<g transform="translate(912,408) scale(4.12)"><path d="M3,5.5H0v-5h3c1.4,0,2.5,1.1,2.5,2.5v0C5.5,4.4,4.4,5.5,3,5.5z"/></g>
<g transform="translate(48,432) scale(4.12)"><path d="M6,5.5H3C1.6,5.5,0.5,4.4,0.5,3v0c0-1.4,1.1-2.5,2.5-2.5h3V5.5z"/></g>
<g transform="translate(72,432) scale(4.12)"><path d="M3,5.5H0v-5h3c1.4,0,2.5,1.1,2.5,2.5v0C5.5,4.4,4.4,5.5,3,5.5z"/></g>
<g transform="translate(120,432) scale(4.12)"><path d="M6,5.5H3C1.6,5.5,0.5,4.4,0.5,3v0c0-1.4,1.1-2.5,2.5-2.5h3V5.5z"/></g>
<g transform="translate(144,432) scale(4.12)"><path d="M3,5.5H0v-5h3c1.4,0,2.5,1.1,2.5,2.5v0C5.5,4.4,4.4,5.5,3,5.5z"/></g>
<g transform="translate(192,432) scale(4.12)"><path d="M6,5.5H3C1.6,5.5,0.5,4.4,0.5,3v0c0-1.4,1.1-2.5,2.5-2.5h3V5.5z"/></g>
<g transform="translate(216,432) scale(4.12)"><rect y="0.5" width="6" height="5"/></g>
<g transform="translate(240,432) scale(4.12)"><path d="M3,5.5H0v-5h3c1.4,0,2.5,1.1,2.5,2.5v0C5.5,4.4,4.4,5.5,3,5.5z"/></g>
<g transform="translate(336,432) scale(4.12)"><circle cx="3" cy="3" r="2.5"/></g>
<g transform="translate(384,432) scale(4.12)"><path d="M6,5.5H3C1.6,5.5,0.5,4.4,0.5,3v0c0-1.4,1.1-2.5,2.5-2.5h3V5.5z"/></g>
<g transform="translate(408,432) scale(4.12)"><rect y="0.5" width="6" height="5"/></g>
<g transform="translate(432,432) scale(4.12)"><path d="M3,5.5H0v-5h3c1.4,0,2.5,1.1,2.5,2.5v0C5.5,4.4,4.4,5.5,3,5.5z"/></g>
<g transform="translate(576,432) scale(4.12)"><circle cx="3" cy="3" r="2.5"/></g>
<g transform="translate(624,432) scale(4.12)"><path d="M6,5.5H3C1.6,5.5,0.5,4.4,0.5,3v0c0-1.4,1.1-2.5,2.5-2.5h3V5.5z"/></g>
<g transform="translate(648,432) scale(4.12)"><rect y="0.5" width="6" height="5"/></g>
<g transform="translate(672,432) scale(4.12)"><rect y="0.5" width="6" height="5"/></g>
<g transform="translate(696,432) scale(4.12)"><rect y="0.5" width="6" height="5"/></g>
<g transform="translate(720,432) scale(4.12)"><rect y="0.5" width="6" height="5"/></g>
<g transform="translate(744,432) scale(4.12)"><rect y="0.5" width="6" height="5"/></g>
<g transform="translate(768,432) scale(4.12)"><rect y="0.5" width="6" height="5"/></g>
<g transform="translate(792,432) scale(4.12)"><rect y="0.5" width="6" height="5"/></g>
<g transform="translate(816,432) scale(4.12)"><path d="M3,5.5H0v-5h3c1.4,0,2.5,1.1,2.5,2.5v0C5.5,4.4,4.4,5.5,3,5.5z"/></g>
<g transform="translate(864,432) scale(4.12)"><path d="M6,5.5H3C1.6,5.5,0.5,4.4,0.5,3v0c0-1.4,1.1-2.5,2.5-2.5h3V5.5z"/></g>
<g transform="translate(888,432) scale(4.12)"><rect y="0.5" width="6" height="5"/></g>
<g transform="translate(912,432) scale(4.12)"><path d="M3,5.5H0v-5h3c1.4,0,2.5,1.1,2.5,2.5v0C5.5,4.4,4.4,5.5,3,5.5z"/></g>
<g transform="translate(48,456) scale(4.12)"><path d="M6,5.5H3C1.6,5.5,0.5,4.4,0.5,3v0c0-1.4,1.1-2.5,2.5-2.5h3V5.5z"/></g>
<g transform="translate(72,456) scale(4.12)"><rect y="0.5" width="6" height="5"/></g>
<g transform="translate(96,456) scale(4.12)"><path d="M3,5.5H0v-5h3c1.4,0,2.5,1.1,2.5,2.5v0C5.5,4.4,4.4,5.5,3,5.5z"/></g>
<g transform="translate(168,456) scale(4.12)"><circle cx="3" cy="3" r="2.5"/></g>
<g transform="translate(264,456) scale(4.12)"><circle cx="3" cy="3" r="2.5"/></g>
<g transform="translate(360,456) scale(4.12)"><circle cx="3" cy="3" r="2.5"/></g>
<g transform="translate(432,456) scale(4.12)"><circle cx="3" cy="3" r="2.5"/></g>
<g transform="translate(528,456) scale(4.12)"><circle cx="3" cy="3" r="2.5"/></g>
<g transform="translate(600,456) scale(4.12)"><circle cx="3" cy="3" r="2.5"/></g>
<g transform="translate(648,456) scale(4.12)"><path d="M6,5.5H3C1.6,5.5,0.5,4.4,0.5,3v0c0-1.4,1.1-2.5,2.5-2.5h3V5.5z"/></g>
<g transform="translate(672,456) scale(4.12)"><path d="M3,5.5H0v-5h3c1.4,0,2.5,1.1,2.5,2.5v0C5.5,4.4,4.4,5.5,3,5.5z"/></g>
<g transform="translate(720,456) scale(4.12)"><path d="M6,5.5H3C1.6,5.5,0.5,4.4,0.5,3v0c0-1.4,1.1-2.5,2.5-2.5h3V5.5z"/></g>
<g transform="translate(744,456) scale(4.12)"><path d="M3,5.5H0v-5h3c1.4,0,2.5,1.1,2.5,2.5v0C5.5,4.4,4.4,5.5,3,5.5z"/></g>
<g transform="translate(792,456) scale(4.12)"><circle cx="3" cy="3" r="2.5"/></g>
<g transform="translate(864,456) scale(4.12)"><circle cx="3" cy="3" r="2.5"/></g>
<g transform="translate(48,480) scale(4.12)"><circle cx="3" cy="3" r="2.5"/></g>
<g transform="translate(120,480) scale(4.12)"><circle cx="3" cy="3" r="2.5"/></g>
<g transform="translate(192,480) scale(4.12)"><circle cx="3" cy="3" r="2.5"/></g>
<g transform="translate(264,480) scale(4.12)"><path d="M6,5.5H3C1.6,5.5,0.5,4.4,0.5,3v0c0-1.4,1.1-2.5,2.5-2.5h3V5.5z"/></g>
<g transform="translate(288,480) scale(4.12)"><rect y="0.5" width="6" height="5"/></g>
<g transform="translate(312,480) scale(4.12)"><path d="M3,5.5H0v-5h3c1.4,0,2.5,1.1,2.5,2.5v0C5.5,4.4,4.4,5.5,3,5.5z"/></g>
<g transform="translate(360,480) scale(4.12)"><circle cx="3" cy="3" r="2.5"/></g>
<g transform="translate(408,480) scale(4.12)"><path d="M6,5.5H3C1.6,5.5,0.5,4.4,0.5,3v0c0-1.4,1.1-2.5,2.5-2.5h3V5.5z"/></g>
<g transform="translate(432,480) scale(4.12)"><rect y="0.5" width="6" height="5"/></g>
<g transform="translate(456,480) scale(4.12)"><path d="M3,5.5H0v-5h3c1.4,0,2.5,1.1,2.5,2.5v0C5.5,4.4,4.4,5.5,3,5.5z"/></g>
<g transform="translate(528,480) scale(4.12)"><circle cx="3" cy="3" r="2.5"/></g>
<g transform="translate(576,480) scale(4.12)"><circle cx="3" cy="3" r="2.5"/></g>
<g transform="translate(648,480) scale(4.12)"><path d="M6,5.5H3C1.6,5.5,0.5,4.4,0.5,3v0c0-1.4,1.1-2.5,2.5-2.5h3V5.5z"/></g>
<g transform="translate(672,480) scale(4.12)"><rect y="0.5" width="6" height="5"/></g>
<g transform="translate(696,480) scale(4.12)"><rect y="0.5" width="6" height="5"/></g>
<g transform="translate(720,480) scale(4.12)"><rect y="0.5" width="6" height="5"/></g>
<g transform="translate(744,480) scale(4.12)"><rect y="0.5" width="6" height="5"/></g>
<g transform="translate(768,480) scale(4.12)"><rect y="0.5" width="6" height="5"/></g>
<g transform="translate(792,480) scale(4.12)"><path d="M3,5.5H0v-5h3c1.4,0,2.5,1.1,2.5,2.5v0C5.5,4.4,4.4,5.5,3,5.5z"/></g>
<g transform="translate(888,480) scale(4.12)"><path d="M6,5.5H3C1.6,5.5,0.5,4.4,0.5,3v0c0-1.4,1.1-2.5,2.5-2.5h3V5.5z"/></g>
<g transform="translate(912,480) scale(4.12)"><path d="M3,5.5H0v-5h3c1.4,0,2.5,1.1,2.5,2.5v0C5.5,4.4,4.4,5.5,3,5.5z"/></g>
<g transform="translate(48,504) scale(4.12)"><path d="M6,5.5H3C1.6,5.5,0.5,4.4,0.5,3v0c0-1.4,1.1-2.5,2.5-2.5h3V5.5z"/></g>
<g transform="translate(72,504) scale(4.12)"><rect y="0.5" width="6" height="5"/></g>
<g transform="translate(96,504) scale(4.12)"><path d="M3,5.5H0v-5h3c1.4,0,2.5,1.1,2.5,2.5v0C5.5,4.4,4.4,5.5,3,5.5z"/></g>
<g transform="translate(144,504) scale(4.12)"><path d="M6,5.5H3C1.6,5.5,0.5,4.4,0.5,3v0c0-1.4,1.1-2.5,2.5-2.5h3V5.5z"/></g>
<g transform="translate(168,504) scale(4.12)"><path d="M3,5.5H0v-5h3c1.4,0,2.5,1.1,2.5,2.5v0C5.5,4.4,4.4,5.5,3,5.5z"/></g>
<g transform="translate(216,504) scale(4.12)"><circle cx="3" cy="3" r="2.5"/></g>
<g transform="translate(288,504) scale(4.12)"><circle cx="3" cy="3" r="2.5"/></g>
<g transform="translate(360,504) scale(4.12)"><circle cx="3" cy="3" r="2.5"/></g>
<g transform="translate(456,504) scale(4.12)"><path d="M6,5.5H3C1.6,5.5,0.5,4.4,0.5,3v0c0-1.4,1.1-2.5,2.5-2.5h3V5.5z"/></g>
<g transform="translate(480,504) scale(4.12)"><rect y="0.5" width="6" height="5"/></g>
<g transform="translate(504,504) scale(4.12)"><rect y="0.5" width="6" height="5"/></g>
<g transform="translate(528,504) scale(4.12)"><rect y="0.5" width="6" height="5"/></g>
<g transform="translate(552,504) scale(4.12)"><path d="M3,5.5H0v-5h3c1.4,0,2.5,1.1,2.5,2.5v0C5.5,4.4,4.4,5.5,3,5.5z"/></g>
<g transform="translate(624,504) scale(4.12)"><circle cx="3" cy="3" r="2.5"/></g>
<g transform="translate(672,504) scale(4.12)"><path d="M6,5.5H3C1.6,5.5,0.5,4.4,0.5,3v0c0-1.4,1.1-2.5,2.5-2.5h3V5.5z"/></g>
<g transform="translate(696,504) scale(4.12)"><rect y="0.5" width="6" height="5"/></g>
<g transform="translate(720,504) scale(4.12)"><rect y="0.5" width="6" height="5"/></g>
<g transform="translate(744,504) scale(4.12)"><rect y="0.5" width="6" height="5"/></g>
<g transform="translate(768,504) scale(4.12)"><rect y="0.5" width="6" height="5"/></g>
<g transform="translate(792,504) scale(4.12)"><path d="M3,5.5H0v-5h3c1.4,0,2.5,1.1,2.5,2.5v0C5.5,4.4,4.4,5.5,3,5.5z"/></g>
<g transform="translate(912,504) scale(4.12)"><circle cx="3" cy="3" r="2.5"/></g>
<g transform="translate(48,528) scale(4.12)"><circle cx="3" cy="3" r="2.5"/></g>
<g transform="translate(144,528) scale(4.12)"><circle cx="3" cy="3" r="2.5"/></g>
<g transform="translate(192,528) scale(4.12)"><path d="M6,5.5H3C1.6,5.5,0.5,4.4,0.5,3v0c0-1.4,1.1-2.5,2.5-2.5h3V5.5z"/></g>
<g transform="translate(216,528) scale(4.12)"><path d="M3,5.5H0v-5h3c1.4,0,2.5,1.1,2.5,2.5v0C5.5,4.4,4.4,5.5,3,5.5z"/></g>
<g transform="translate(264,528) scale(4.12)"><path d="M6,5.5H3C1.6,5.5,0.5,4.4,0.5,3v0c0-1.4,1.1-2.5,2.5-2.5h3V5.5z"/></g>
<g transform="translate(288,528) scale(4.12)"><rect y="0.5" width="6" height="5"/></g>
<g transform="translate(312,528) scale(4.12)"><rect y="0.5" width="6" height="5"/></g>
<g transform="translate(336,528) scale(4.12)"><rect y="0.5" width="6" height="5"/></g>
<g transform="translate(360,528) scale(4.12)"><path d="M3,5.5H0v-5h3c1.4,0,2.5,1.1,2.5,2.5v0C5.5,4.4,4.4,5.5,3,5.5z"/></g>
<g transform="translate(408,528) scale(4.12)"><path d="M6,5.5H3C1.6,5.5,0.5,4.4,0.5,3v0c0-1.4,1.1-2.5,2.5-2.5h3V5.5z"/></g>
<g transform="translate(432,528) scale(4.12)"><path d="M3,5.5H0v-5h3c1.4,0,2.5,1.1,2.5,2.5v0C5.5,4.4,4.4,5.5,3,5.5z"/></g>
<g transform="translate(480,528) scale(4.12)"><path d="M6,5.5H3C1.6,5.5,0.5,4.4,0.5,3v0c0-1.4,1.1-2.5,2.5-2.5h3V5.5z"/></g>
<g transform="translate(504,528) scale(4.12)"><rect y="0.5" width="6" height="5"/></g>
<g transform="translate(528,528) scale(4.12)"><path d="M3,5.5H0v-5h3c1.4,0,2.5,1.1,2.5,2.5v0C5.5,4.4,4.4,5.5,3,5.5z"/></g>
<g transform="translate(576,528) scale(4.12)"><path d="M6,5.5H3C1.6,5.5,0.5,4.4,0.5,3v0c0-1.4,1.1-2.5,2.5-2.5h3V5.5z"/></g>
<g transform="translate(600,528) scale(4.12)"><rect y="0.5" width="6" height="5"/></g>
<g transform="translate(624,528) scale(4.12)"><rect y="0.5" width="6" height="5"/></g>
<g transform="translate(648,528) scale(4.12)"><rect y="0.5" width="6" height="5"/></g>
<g transform="translate(672,528) scale(4.12)"><rect y="0.5" width="6" height="5"/></g>
<g transform="translate(696,528) scale(4.12)"><path d="M3,5.5H0v-5h3c1.4,0,2.5,1.1,2.5,2.5v0C5.5,4.4,4.4,5.5,3,5.5z"/></g>
<g transform="translate(744,528) scale(4.12)"><path d="M6,5.5H3C1.6,5.5,0.5,4.4,0.5,3v0c0-1.4,1.1-2.5,2.5-2.5h3V5.5z"/></g>
<g transform="translate(768,528) scale(4.12)"><rect y="0.5" width="6" height="5"/></g>
<g transform="translate(792,528) scale(4.12)"><rect y="0.5" width="6" height="5"/></g>
<g transform="translate(816,528) scale(4.12)"><rect y="0.5" width="6" height="5"/></g>
<g transform="translate(840,528) scale(4.12)"><rect y="0.5" width="6" height="5"/></g>
<g transform="translate(864,528) scale(4.12)"><rect y="0.5" width="6" height="5"/></g>
<g transform="translate(888,528) scale(4.12)"><path d="M3,5.5H0v-5h3c1.4,0,2.5,1.1,2.5,2.5v0C5.5,4.4,4.4,5.5,3,5.5z"/></g>
<g transform="translate(72,552) scale(4.12)"><path d="M6,5.5H3C1.6,5.5,0.5,4.4,0.5,3v0c0-1.4,1.1-2.5,2.5-2.5h3V5.5z"/></g>
<g transform="translate(96,552) scale(4.12)"><path d="M3,5.5H0v-5h3c1.4,0,2.5,1.1,2.5,2.5v0C5.5,4.4,4.4,5.5,3,5.5z"/></g>
<g transform="translate(168,552) scale(4.12)"><circle cx="3" cy="3" r="2.5"/></g>
<g transform="translate(216,552) scale(4.12)"><path d="M6,5.5H3C1.6,5.5,0.5,4.4,0.5,3v0c0-1.4,1.1-2.5,2.5-2.5h3V5.5z"/></g>
<g transform="translate(240,552) scale(4.12)"><path d="M3,5.5H0v-5h3c1.4,0,2.5,1.1,2.5,2.5v0C5.5,4.4,4.4,5.5,3,5.5z"/></g>
<g transform="translate(384,552) scale(4.12)"><circle cx="3" cy="3" r="2.5"/></g>
<g transform="translate(480,552) scale(4.12)"><circle cx="3" cy="3" r="2.5"/></g>
<g transform="translate(528,552) scale(4.12)"><circle cx="3" cy="3" r="2.5"/></g>
<g transform="translate(600,552) scale(4.12)"><circle cx="3" cy="3" r="2.5"/></g>
<g transform="translate(792,552) scale(4.12)"><circle cx="3" cy="3" r="2.5"/></g>
<g transform="translate(840,552) scale(4.12)"><circle cx="3" cy="3" r="2.5"/></g>
<g transform="translate(48,576) scale(4.12)"><circle cx="3" cy="3" r="2.5"/></g>
<g transform="translate(96,576) scale(4.12)"><circle cx="3" cy="3" r="2.5"/></g>
<g transform="translate(168,576) scale(4.12)"><path d="M6,5.5H3C1.6,5.5,0.5,4.4,0.5,3v0c0-1.4,1.1-2.5,2.5-2.5h3V5.5z"/></g>
<g transform="translate(192,576) scale(4.12)"><path d="M3,5.5H0v-5h3c1.4,0,2.5,1.1,2.5,2.5v0C5.5,4.4,4.4,5.5,3,5.5z"/></g>
<g transform="translate(288,576) scale(4.12)"><path d="M6,5.5H3C1.6,5.5,0.5,4.4,0.5,3v0c0-1.4,1.1-2.5,2.5-2.5h3V5.5z"/></g>
<g transform="translate(312,576) scale(4.12)"><rect y="0.5" width="6" height="5"/></g>
<g transform="translate(336,576) scale(4.12)"><rect y="0.5" width="6" height="5"/></g>
<g transform="translate(360,576) scale(4.12)"><path d="M3,5.5H0v-5h3c1.4,0,2.5,1.1,2.5,2.5v0C5.5,4.4,4.4,5.5,3,5.5z"/></g>
<g transform="translate(408,576) scale(4.12)"><path d="M6,5.5H3C1.6,5.5,0.5,4.4,0.5,3v0c0-1.4,1.1-2.5,2.5-2.5h3V5.5z"/></g>
<g transform="translate(432,576) scale(4.12)"><rect y="0.5" width="6" height="5"/></g>
<g transform="translate(456,576) scale(4.12)"><path d="M3,5.5H0v-5h3c1.4,0,2.5,1.1,2.5,2.5v0C5.5,4.4,4.4,5.5,3,5.5z"/></g>
<g transform="translate(504,576) scale(4.12)"><circle cx="3" cy="3" r="2.5"/></g>
<g transform="translate(576,576) scale(4.12)"><circle cx="3" cy="3" r="2.5"/></g>
<g transform="translate(624,576) scale(4.12)"><circle cx="3" cy="3" r="2.5"/></g>
<g transform="translate(672,576) scale(4.12)"><path d="M6,5.5H3C1.6,5.5,0.5,4.4,0.5,3v0c0-1.4,1.1-2.5,2.5-2.5h3V5.5z"/></g>
<g transform="translate(696,576) scale(4.12)"><path d="M3,5.5H0v-5h3c1.4,0,2.5,1.1,2.5,2.5v0C5.5,4.4,4.4,5.5,3,5.5z"/></g>
<g transform="translate(744,576) scale(4.12)"><path d="M6,5.5H3C1.6,5.5,0.5,4.4,0.5,3v0c0-1.4,1.1-2.5,2.5-2.5h3V5.5z"/></g>
<g transform="translate(768,576) scale(4.12)"><path d="M3,5.5H0v-5h3c1.4,0,2.5,1.1,2.5,2.5v0C5.5,4.4,4.4,5.5,3,5.5z"/></g>
<g transform="translate(864,576) scale(4.12)"><path d="M6,5.5H3C1.6,5.5,0.5,4.4,0.5,3v0c0-1.4,1.1-2.5,2.5-2.5h3V5.5z"/></g>
<g transform="translate(888,576) scale(4.12)"><rect y="0.5" width="6" height="5"/></g>
<g transform="translate(912,576) scale(4.12)"><path d="M3,5.5H0v-5h3c1.4,0,2.5,1.1,2.5,2.5v0C5.5,4.4,4.4,5.5,3,5.5z"/></g>
<g transform="translate(48,600) scale(4.12)"><path d="M6,5.5H3C1.6,5.5,0.5,4.4,0.5,3v0c0-1.4,1.1-2.5,2.5-2.5h3V5.5z"/></g>
<g transform="translate(72,600) scale(4.12)"><rect y="0.5" width="6" height="5"/></g>
<g transform="translate(96,600) scale(4.12)"><path d="M3,5.5H0v-5h3c1.4,0,2.5,1.1,2.5,2.5v0C5.5,4.4,4.4,5.5,3,5.5z"/></g>
<g transform="translate(216,600) scale(4.12)"><path d="M6,5.5H3C1.6,5.5,0.5,4.4,0.5,3v0c0-1.4,1.1-2.5,2.5-2.5h3V5.5z"/></g>
<g transform="translate(240,600) scale(4.12)"><path d="M3,5.5H0v-5h3c1.4,0,2.5,1.1,2.5,2.5v0C5.5,4.4,4.4,5.5,3,5.5z"/></g>
<g transform="translate(288,600) scale(4.12)"><path d="M6,5.5H3C1.6,5.5,0.5,4.4,0.5,3v0c0-1.4,1.1-2.5,2.5-2.5h3V5.5z"/></g>
<g transform="translate(312,600) scale(4.12)"><path d="M3,5.5H0v-5h3c1.4,0,2.5,1.1,2.5,2.5v0C5.5,4.4,4.4,5.5,3,5.5z"/></g>
<g transform="translate(504,600) scale(4.12)"><path d="M6,5.5H3C1.6,5.5,0.5,4.4,0.5,3v0c0-1.4,1.1-2.5,2.5-2.5h3V5.5z"/></g>
<g transform="translate(528,600) scale(4.12)"><rect y="0.5" width="6" height="5"/></g>
<g transform="translate(552,600) scale(4.12)"><rect y="0.5" width="6" height="5"/></g>
<g transform="translate(576,600) scale(4.12)"><rect y="0.5" width="6" height="5"/></g>
<g transform="translate(600,600) scale(4.12)"><rect y="0.5" width="6" height="5"/></g>
<g transform="translate(624,600) scale(4.12)"><path d="M3,5.5H0v-5h3c1.4,0,2.5,1.1,2.5,2.5v0C5.5,4.4,4.4,5.5,3,5.5z"/></g>
<g transform="translate(672,600) scale(4.12)"><circle cx="3" cy="3" r="2.5"/></g>
<g transform="translate(768,600) scale(4.12)"><path d="M6,5.5H3C1.6,5.5,0.5,4.4,0.5,3v0c0-1.4,1.1-2.5,2.5-2.5h3V5.5z"/></g>
<g transform="translate(792,600) scale(4.12)"><path d="M3,5.5H0v-5h3c1.4,0,2.5,1.1,2.5,2.5v0C5.5,4.4,4.4,5.5,3,5.5z"/></g>
<g transform="translate(888,600) scale(4.12)"><circle cx="3" cy="3" r="2.5"/></g>
<g transform="translate(48,624) scale(4.12)"><circle cx="3" cy="3" r="2.5"/></g>
<g transform="translate(168,624) scale(4.12)"><path d="M6,5.5H3C1.6,5.5,0.5,4.4,0.5,3v0c0-1.4,1.1-2.5,2.5-2.5h3V5.5z"/></g>
<g transform="translate(192,624) scale(4.12)"><path d="M3,5.5H0v-5h3c1.4,0,2.5,1.1,2.5,2.5v0C5.5,4.4,4.4,5.5,3,5.5z"/></g>
<g transform="translate(264,624) scale(4.12)"><circle cx="3" cy="3" r="2.5"/></g>
<g transform="translate(336,624) scale(4.12)"><path d="M6,5.5H3C1.6,5.5,0.5,4.4,0.5,3v0c0-1.4,1.1-2.5,2.5-2.5h3V5.5z"/></g>
<g transform="translate(360,624) scale(4.12)"><rect y="0.5" width="6" height="5"/></g>
<g transform="translate(384,624) scale(4.12)"><rect y="0.5" width="6" height="5"/></g>
<g transform="translate(408,624) scale(4.12)"><rect y="0.5" width="6" height="5"/></g>
<g transform="translate(432,624) scale(4.12)"><rect y="0.5" width="6" height="5"/></g>
<g transform="translate(456,624) scale(4.12)"><rect y="0.5" width="6" height="5"/></g>
<g transform="translate(480,624) scale(4.12)"><rect y="0.5" width="6" height="5"/></g>
<g transform="translate(504,624) scale(4.12)"><rect y="0.5" width="6" height="5"/></g>
<g transform="translate(528,624) scale(4.12)"><path d="M3,5.5H0v-5h3c1.4,0,2.5,1.1,2.5,2.5v0C5.5,4.4,4.4,5.5,3,5.5z"/></g>
<g transform="translate(576,624) scale(4.12)"><circle cx="3" cy="3" r="2.5"/></g>
<g transform="translate(648,624) scale(4.12)"><path d="M6,5.5H3C1.6,5.5,0.5,4.4,0.5,3v0c0-1.4,1.1-2.5,2.5-2.5h3V5.5z"/></g>
<g transform="translate(672,624) scale(4.12)"><path d="M3,5.5H0v-5h3c1.4,0,2.5,1.1,2.5,2.5v0C5.5,4.4,4.4,5.5,3,5.5z"/></g>
<g transform="translate(744,624) scale(4.12)"><path d="M6,5.5H3C1.6,5.5,0.5,4.4,0.5,3v0c0-1.4,1.1-2.5,2.5-2.5h3V5.5z"/></g>
<g transform="translate(768,624) scale(4.12)"><path d="M3,5.5H0v-5h3c1.4,0,2.5,1.1,2.5,2.5v0C5.5,4.4,4.4,5.5,3,5.5z"/></g>
<g transform="translate(816,624) scale(4.12)"><path d="M6,5.5H3C1.6,5.5,0.5,4.4,0.5,3v0c0-1.4,1.1-2.5,2.5-2.5h3V5.5z"/></g>
<g transform="translate(840,624) scale(4.12)"><rect y="0.5" width="6" height="5"/></g>
<g transform="translate(864,624) scale(4.12)"><rect y="0.5" width="6" height="5"/></g>
<g transform="translate(888,624) scale(4.12)"><path d="M3,5.5H0v-5h3c1.4,0,2.5,1.1,2.5,2.5v0C5.5,4.4,4.4,5.5,3,5.5z"/></g>
<g transform="translate(48,648) scale(4.12)"><circle cx="3" cy="3" r="2.5"/></g>
<g transform="translate(96,648) scale(4.12)"><circle cx="3" cy="3" r="2.5"/></g>
<g transform="translate(240,648) scale(4.12)"><path d="M6,5.5H3C1.6,5.5,0.5,4.4,0.5,3v0c0-1.4,1.1-2.5,2.5-2.5h3V5.5z"/></g>
<g transform="translate(264,648) scale(4.12)"><rect y="0.5" width="6" height="5"/></g>
<g transform="translate(288,648) scale(4.12)"><path d="M3,5.5H0v-5h3c1.4,0,2.5,1.1,2.5,2.5v0C5.5,4.4,4.4,5.5,3,5.5z"/></g>
<g transform="translate(336,648) scale(4.12)"><path d="M6,5.5H3C1.6,5.5,0.5,4.4,0.5,3v0c0-1.4,1.1-2.5,2.5-2.5h3V5.5z"/></g>
<g transform="translate(360,648) scale(4.12)"><rect y="0.5" width="6" height="5"/></g>
<g transform="translate(384,648) scale(4.12)"><rect y="0.5" width="6" height="5"/></g>
<g transform="translate(408,648) scale(4.12)"><rect y="0.5" width="6" height="5"/></g>
<g transform="translate(432,648) scale(4.12)"><rect y="0.5" width="6" height="5"/></g>
<g transform="translate(456,648) scale(4.12)"><rect y="0.5" width="6" height="5"/></g>
<g transform="translate(480,648) scale(4.12)"><path d="M3,5.5H0v-5h3c1.4,0,2.5,1.1,2.5,2.5v0C5.5,4.4,4.4,5.5,3,5.5z"/></g>
<g transform="translate(528,648) scale(4.12)"><path d="M6,5.5H3C1.6,5.5,0.5,4.4,0.5,3v0c0-1.4,1.1-2.5,2.5-2.5h3V5.5z"/></g>
<g transform="translate(552,648) scale(4.12)"><path d="M3,5.5H0v-5h3c1.4,0,2.5,1.1,2.5,2.5v0C5.5,4.4,4.4,5.5,3,5.5z"/></g>
<g transform="translate(600,648) scale(4.12)"><circle cx="3" cy="3" r="2.5"/></g>
<g transform="translate(648,648) scale(4.12)"><path d="M6,5.5H3C1.6,5.5,0.5,4.4,0.5,3v0c0-1.4,1.1-2.5,2.5-2.5h3V5.5z"/></g>
<g transform="translate(672,648) scale(4.12)"><path d="M3,5.5H0v-5h3c1.4,0,2.5,1.1,2.5,2.5v0C5.5,4.4,4.4,5.5,3,5.5z"/></g>
<g transform="translate(720,648) scale(4.12)"><path d="M6,5.5H3C1.6,5.5,0.5,4.4,0.5,3v0c0-1.4,1.1-2.5,2.5-2.5h3V5.5z"/></g>
<g transform="translate(744,648) scale(4.12)"><path d="M3,5.5H0v-5h3c1.4,0,2.5,1.1,2.5,2.5v0C5.5,4.4,4.4,5.5,3,5.5z"/></g>
<g transform="translate(792,648) scale(4.12)"><circle cx="3" cy="3" r="2.5"/></g>
<g transform="translate(840,648) scale(4.12)"><path d="M6,5.5H3C1.6,5.5,0.5,4.4,0.5,3v0c0-1.4,1.1-2.5,2.5-2.5h3V5.5z"/></g>
<g transform="translate(864,648) scale(4.12)"><path d="M3,5.5H0v-5h3c1.4,0,2.5,1.1,2.5,2.5v0C5.5,4.4,4.4,5.5,3,5.5z"/></g>
<g transform="translate(48,672) scale(4.12)"><circle cx="3" cy="3" r="2.5"/></g>
<g transform="translate(144,672) scale(4.12)"><circle cx="3" cy="3" r="2.5"/></g>
<g transform="translate(192,672) scale(4.12)"><path d="M6,5.5H3C1.6,5.5,0.5,4.4,0.5,3v0c0-1.4,1.1-2.5,2.5-2.5h3V5.5z"/></g>
<g transform="translate(216,672) scale(4.12)"><rect y="0.5" width="6" height="5"/></g>
<g transform="translate(240,672) scale(4.12)"><path d="M3,5.5H0v-5h3c1.4,0,2.5,1.1,2.5,2.5v0C5.5,4.4,4.4,5.5,3,5.5z"/></g>
<g transform="translate(336,672) scale(4.12)"><path d="M6,5.5H3C1.6,5.5,0.5,4.4,0.5,3v0c0-1.4,1.1-2.5,2.5-2.5h3V5.5z"/></g>
<g transform="translate(360,672) scale(4.12)"><path d="M3,5.5H0v-5h3c1.4,0,2.5,1.1,2.5,2.5v0C5.5,4.4,4.4,5.5,3,5.5z"/></g>
<g transform="translate(408,672) scale(4.12)"><circle cx="3" cy="3" r="2.5"/></g>
<g transform="translate(456,672) scale(4.12)"><circle cx="3" cy="3" r="2.5"/></g>
<g transform="translate(504,672) scale(4.12)"><circle cx="3" cy="3" r="2.5"/></g>
<g transform="translate(552,672) scale(4.12)"><path d="M6,5.5H3C1.6,5.5,0.5,4.4,0.5,3v0c0-1.4,1.1-2.5,2.5-2.5h3V5.5z"/></g>
<g transform="translate(576,672) scale(4.12)"><path d="M3,5.5H0v-5h3c1.4,0,2.5,1.1,2.5,2.5v0C5.5,4.4,4.4,5.5,3,5.5z"/></g>
<g transform="translate(624,672) scale(4.12)"><circle cx="3" cy="3" r="2.5"/></g>
<g transform="translate(672,672) scale(4.12)"><path d="M6,5.5H3C1.6,5.5,0.5,4.4,0.5,3v0c0-1.4,1.1-2.5,2.5-2.5h3V5.5z"/></g>
<g transform="translate(696,672) scale(4.12)"><rect y="0.5" width="6" height="5"/></g>
<g transform="translate(720,672) scale(4.12)"><path d="M3,5.5H0v-5h3c1.4,0,2.5,1.1,2.5,2.5v0C5.5,4.4,4.4,5.5,3,5.5z"/></g>
<g transform="translate(768,672) scale(4.12)"><path d="M6,5.5H3C1.6,5.5,0.5,4.4,0.5,3v0c0-1.4,1.1-2.5,2.5-2.5h3V5.5z"/></g>
<g transform="translate(792,672) scale(4.12)"><path d="M3,5.5H0v-5h3c1.4,0,2.5,1.1,2.5,2.5v0C5.5,4.4,4.4,5.5,3,5.5z"/></g>
<g transform="translate(840,672) scale(4.12)"><circle cx="3" cy="3" r="2.5"/></g>
<g transform="translate(888,672) scale(4.12)"><path d="M6,5.5H3C1.6,5.5,0.5,4.4,0.5,3v0c0-1.4,1.1-2.5,2.5-2.5h3V5.5z"/></g>
<g transform="translate(912,672) scale(4.12)"><path d="M3,5.5H0v-5h3c1.4,0,2.5,1.1,2.5,2.5v0C5.5,4.4,4.4,5.5,3,5.5z"/></g>
<g transform="translate(48,696) scale(4.12)"><circle cx="3" cy="3" r="2.5"/></g>
<g transform="translate(96,696) scale(4.12)"><path d="M6,5.5H3C1.6,5.5,0.5,4.4,0.5,3v0c0-1.4,1.1-2.5,2.5-2.5h3V5.5z"/></g>
<g transform="translate(120,696) scale(4.12)"><rect y="0.5" width="6" height="5"/></g>
<g transform="translate(144,696) scale(4.12)"><rect y="0.5" width="6" height="5"/></g>
<g transform="translate(168,696) scale(4.12)"><path d="M3,5.5H0v-5h3c1.4,0,2.5,1.1,2.5,2.5v0C5.5,4.4,4.4,5.5,3,5.5z"/></g>
<g transform="translate(264,696) scale(4.12)"><path d="M6,5.5H3C1.6,5.5,0.5,4.4,0.5,3v0c0-1.4,1.1-2.5,2.5-2.5h3V5.5z"/></g>
<g transform="translate(288,696) scale(4.12)"><rect y="0.5" width="6" height="5"/></g>
<g transform="translate(312,696) scale(4.12)"><path d="M3,5.5H0v-5h3c1.4,0,2.5,1.1,2.5,2.5v0C5.5,4.4,4.4,5.5,3,5.5z"/></g>
<g transform="translate(360,696) scale(4.12)"><path d="M6,5.5H3C1.6,5.5,0.5,4.4,0.5,3v0c0-1.4,1.1-2.5,2.5-2.5h3V5.5z"/></g>
<g transform="translate(384,696) scale(4.12)"><rect y="0.5" width="6" height="5"/></g>
<g transform="translate(408,696) scale(4.12)"><path d="M3,5.5H0v-5h3c1.4,0,2.5,1.1,2.5,2.5v0C5.5,4.4,4.4,5.5,3,5.5z"/></g>
<g transform="translate(552,696) scale(4.12)"><circle cx="3" cy="3" r="2.5"/></g>
<g transform="translate(600,696) scale(4.12)"><circle cx="3" cy="3" r="2.5"/></g>
<g transform="translate(672,696) scale(4.12)"><circle cx="3" cy="3" r="2.5"/></g>
<g transform="translate(744,696) scale(4.12)"><circle cx="3" cy="3" r="2.5"/></g>
<g transform="translate(816,696) scale(4.12)"><circle cx="3" cy="3" r="2.5"/></g>
<g transform="translate(912,696) scale(4.12)"><circle cx="3" cy="3" r="2.5"/></g>
<g transform="translate(48,720) scale(4.12)"><circle cx="3" cy="3" r="2.5"/></g>
<g transform="translate(120,720) scale(4.12)"><circle cx="3" cy="3" r="2.5"/></g>
<g transform="translate(192,720) scale(4.12)"><circle cx="3" cy="3" r="2.5"/></g>
<g transform="translate(240,720) scale(4.12)"><path d="M6,5.5H3C1.6,5.5,0.5,4.4,0.5,3v0c0-1.4,1.1-2.5,2.5-2.5h3V5.5z"/></g>
<g transform="translate(264,720) scale(4.12)"><path d="M3,5.5H0v-5h3c1.4,0,2.5,1.1,2.5,2.5v0C5.5,4.4,4.4,5.5,3,5.5z"/></g>
<g transform="translate(384,720) scale(4.12)"><path d="M6,5.5H3C1.6,5.5,0.5,4.4,0.5,3v0c0-1.4,1.1-2.5,2.5-2.5h3V5.5z"/></g>
<g transform="translate(408,720) scale(4.12)"><path d="M3,5.5H0v-5h3c1.4,0,2.5,1.1,2.5,2.5v0C5.5,4.4,4.4,5.5,3,5.5z"/></g>
<g transform="translate(456,720) scale(4.12)"><circle cx="3" cy="3" r="2.5"/></g>
<g transform="translate(528,720) scale(4.12)"><circle cx="3" cy="3" r="2.5"/></g>
<g transform="translate(576,720) scale(4.12)"><path d="M6,5.5H3C1.6,5.5,0.5,4.4,0.5,3v0c0-1.4,1.1-2.5,2.5-2.5h3V5.5z"/></g>
<g transform="translate(600,720) scale(4.12)"><rect y="0.5" width="6" height="5"/></g>
<g transform="translate(624,720) scale(4.12)"><rect y="0.5" width="6" height="5"/></g>
<g transform="translate(648,720) scale(4.12)"><rect y="0.5" width="6" height="5"/></g>
<g transform="translate(672,720) scale(4.12)"><rect y="0.5" width="6" height="5"/></g>
<g transform="translate(696,720) scale(4.12)"><rect y="0.5" width="6" height="5"/></g>
<g transform="translate(720,720) scale(4.12)"><rect y="0.5" width="6" height="5"/></g>
<g transform="translate(744,720) scale(4.12)"><rect y="0.5" width="6" height="5"/></g>
<g transform="translate(768,720) scale(4.12)"><rect y="0.5" width="6" height="5"/></g>
<g transform="translate(792,720) scale(4.12)"><rect y="0.5" width="6" height="5"/></g>
<g transform="translate(816,720) scale(4.12)"><rect y="0.5" width="6" height="5"/></g>
<g transform="translate(840,720) scale(4.12)"><rect y="0.5" width="6" height="5"/></g>
<g transform="translate(864,720) scale(4.12)"><rect y="0.5" width="6" height="5"/></g>
<g transform="translate(888,720) scale(4.12)"><rect y="0.5" width="6" height="5"/></g>
<g transform="translate(912,720) scale(4.12)"><path d="M3,5.5H0v-5h3c1.4,0,2.5,1.1,2.5,2.5v0C5.5,4.4,4.4,5.5,3,5.5z"/></g>
<g transform="translate(240,744) scale(4.12)"><circle cx="3" cy="3" r="2.5"/></g>
<g transform="translate(288,744) scale(4.12)"><circle cx="3" cy="3" r="2.5"/></g>
<g transform="translate(384,744) scale(4.12)"><path d="M6,5.5H3C1.6,5.5,0.5,4.4,0.5,3v0c0-1.4,1.1-2.5,2.5-2.5h3V5.5z"/></g>
<g transform="translate(408,744) scale(4.12)"><path d="M3,5.5H0v-5h3c1.4,0,2.5,1.1,2.5,2.5v0C5.5,4.4,4.4,5.5,3,5.5z"/></g>
<g transform="translate(480,744) scale(4.12)"><path d="M6,5.5H3C1.6,5.5,0.5,4.4,0.5,3v0c0-1.4,1.1-2.5,2.5-2.5h3V5.5z"/></g>
<g transform="translate(504,744) scale(4.12)"><rect y="0.5" width="6" height="5"/></g>
<g transform="translate(528,744) scale(4.12)"><rect y="0.5" width="6" height="5"/></g>
<g transform="translate(552,744) scale(4.12)"><rect y="0.5" width="6" height="5"/></g>
<g transform="translate(576,744) scale(4.12)"><rect y="0.5" width="6" height="5"/></g>
<g transform="translate(600,744) scale(4.12)"><path d="M3,5.5H0v-5h3c1.4,0,2.5,1.1,2.5,2.5v0C5.5,4.4,4.4,5.5,3,5.5z"/></g>
<g transform="translate(672,744) scale(4.12)"><circle cx="3" cy="3" r="2.5"/></g>
<g transform="translate(720,744) scale(4.12)"><circle cx="3" cy="3" r="2.5"/></g>
<g transform="translate(816,744) scale(4.12)"><circle cx="3" cy="3" r="2.5"/></g>
<g transform="translate(240,768) scale(4.12)"><path d="M6,5.5H3C1.6,5.5,0.5,4.4,0.5,3v0c0-1.4,1.1-2.5,2.5-2.5h3V5.5z"/></g>
<g transform="translate(264,768) scale(4.12)"><rect y="0.5" width="6" height="5"/></g>
<g transform="translate(288,768) scale(4.12)"><path d="M3,5.5H0v-5h3c1.4,0,2.5,1.1,2.5,2.5v0C5.5,4.4,4.4,5.5,3,5.5z"/></g>
<g transform="translate(336,768) scale(4.12)"><circle cx="3" cy="3" r="2.5"/></g>
<g transform="translate(384,768) scale(4.12)"><circle cx="3" cy="3" r="2.5"/></g>
<g transform="translate(432,768) scale(4.12)"><circle cx="3" cy="3" r="2.5"/></g>
<g transform="translate(480,768) scale(4.12)"><path d="M6,5.5H3C1.6,5.5,0.5,4.4,0.5,3v0c0-1.4,1.1-2.5,2.5-2.5h3V5.5z"/></g>
<g transform="translate(504,768) scale(4.12)"><path d="M3,5.5H0v-5h3c1.4,0,2.5,1.1,2.5,2.5v0C5.5,4.4,4.4,5.5,3,5.5z"/></g>
<g transform="translate(576,768) scale(4.12)"><circle cx="3" cy="3" r="2.5"/></g>
<g transform="translate(648,768) scale(4.12)"><circle cx="3" cy="3" r="2.5"/></g>
<g transform="translate(720,768) scale(4.12)"><circle cx="3" cy="3" r="2.5"/></g>
<g transform="translate(768,768) scale(4.12)"><circle cx="3" cy="3" r="2.5"/></g>
<g transform="translate(816,768) scale(4.12)"><path d="M6,5.5H3C1.6,5.5,0.5,4.4,0.5,3v0c0-1.4,1.1-2.5,2.5-2.5h3V5.5z"/></g>
<g transform="translate(840,768) scale(4.12)"><path d="M3,5.5H0v-5h3c1.4,0,2.5,1.1,2.5,2.5v0C5.5,4.4,4.4,5.5,3,5.5z"/></g>
<g transform="translate(888,768) scale(4.12)"><path d="M6,5.5H3C1.6,5.5,0.5,4.4,0.5,3v0c0-1.4,1.1-2.5,2.5-2.5h3V5.5z"/></g>
<g transform="translate(912,768) scale(4.12)"><path d="M3,5.5H0v-5h3c1.4,0,2.5,1.1,2.5,2.5v0C5.5,4.4,4.4,5.5,3,5.5z"/></g>
<g transform="translate(240,792) scale(4.12)"><path d="M6,5.5H3C1.6,5.5,0.5,4.4,0.5,3v0c0-1.4,1.1-2.5,2.5-2.5h3V5.5z"/></g>
<g transform="translate(264,792) scale(4.12)"><path d="M3,5.5H0v-5h3c1.4,0,2.5,1.1,2.5,2.5v0C5.5,4.4,4.4,5.5,3,5.5z"/></g>
<g transform="translate(360,792) scale(4.12)"><path d="M6,5.5H3C1.6,5.5,0.5,4.4,0.5,3v0c0-1.4,1.1-2.5,2.5-2.5h3V5.5z"/></g>
<g transform="translate(384,792) scale(4.12)"><path d="M3,5.5H0v-5h3c1.4,0,2.5,1.1,2.5,2.5v0C5.5,4.4,4.4,5.5,3,5.5z"/></g>
<g transform="translate(480,792) scale(4.12)"><path d="M6,5.5H3C1.6,5.5,0.5,4.4,0.5,3v0c0-1.4,1.1-2.5,2.5-2.5h3V5.5z"/></g>
<g transform="translate(504,792) scale(4.12)"><rect y="0.5" width="6" height="5"/></g>
<g transform="translate(528,792) scale(4.12)"><rect y="0.5" width="6" height="5"/></g>
<g transform="translate(552,792) scale(4.12)"><path d="M3,5.5H0v-5h3c1.4,0,2.5,1.1,2.5,2.5v0C5.5,4.4,4.4,5.5,3,5.5z"/></g>
<g transform="translate(600,792) scale(4.12)"><path d="M6,5.5H3C1.6,5.5,0.5,4.4,0.5,3v0c0-1.4,1.1-2.5,2.5-2.5h3V5.5z"/></g>
<g transform="translate(624,792) scale(4.12)"><path d="M3,5.5H0v-5h3c1.4,0,2.5,1.1,2.5,2.5v0C5.5,4.4,4.4,5.5,3,5.5z"/></g>
<g transform="translate(672,792) scale(4.12)"><circle cx="3" cy="3" r="2.5"/></g>
<g transform="translate(720,792) scale(4.12)"><circle cx="3" cy="3" r="2.5"/></g>
<g transform="translate(816,792) scale(4.12)"><circle cx="3" cy="3" r="2.5"/></g>
<g transform="translate(888,792) scale(4.12)"><path d="M6,5.5H3C1.6,5.5,0.5,4.4,0.5,3v0c0-1.4,1.1-2.5,2.5-2.5h3V5.5z"/></g>
<g transform="translate(912,792) scale(4.12)"><path d="M3,5.5H0v-5h3c1.4,0,2.5,1.1,2.5,2.5v0C5.5,4.4,4.4,5.5,3,5.5z"/></g>
<g transform="translate(240,816) scale(4.12)"><circle cx="3" cy="3" r="2.5"/></g>
<g transform="translate(288,816) scale(4.12)"><path d="M6,5.5H3C1.6,5.5,0.5,4.4,0.5,3v0c0-1.4,1.1-2.5,2.5-2.5h3V5.5z"/></g>
<g transform="translate(312,816) scale(4.12)"><rect y="0.5" width="6" height="5"/></g>
<g transform="translate(336,816) scale(4.12)"><rect y="0.5" width="6" height="5"/></g>
<g transform="translate(360,816) scale(4.12)"><rect y="0.5" width="6" height="5"/></g>
<g transform="translate(384,816) scale(4.12)"><path d="M3,5.5H0v-5h3c1.4,0,2.5,1.1,2.5,2.5v0C5.5,4.4,4.4,5.5,3,5.5z"/></g>
<g transform="translate(432,816) scale(4.12)"><path d="M6,5.5H3C1.6,5.5,0.5,4.4,0.5,3v0c0-1.4,1.1-2.5,2.5-2.5h3V5.5z"/></g>
<g transform="translate(456,816) scale(4.12)"><rect y="0.5" width="6" height="5"/></g>
<g transform="translate(480,816) scale(4.12)"><rect y="0.5" width="6" height="5"/></g>
<g transform="translate(504,816) scale(4.12)"><path d="M3,5.5H0v-5h3c1.4,0,2.5,1.1,2.5,2.5v0C5.5,4.4,4.4,5.5,3,5.5z"/></g>
<g transform="translate(576,816) scale(4.12)"><circle cx="3" cy="3" r="2.5"/></g>
<g transform="translate(648,816) scale(4.12)"><circle cx="3" cy="3" r="2.5"/></g>
<g transform="translate(696,816) scale(4.12)"><path d="M6,5.5H3C1.6,5.5,0.5,4.4,0.5,3v0c0-1.4,1.1-2.5,2.5-2.5h3V5.5z"/></g>
<g transform="translate(720,816) scale(4.12)"><rect y="0.5" width="6" height="5"/></g>
<g transform="translate(744,816) scale(4.12)"><rect y="0.5" width="6" height="5"/></g>
<g transform="translate(768,816) scale(4.12)"><rect y="0.5" width="6" height="5"/></g>
<g transform="translate(792,816) scale(4.12)"><rect y="0.5" width="6" height="5"/></g>
<g transform="translate(816,816) scale(4.12)"><path d="M3,5.5H0v-5h3c1.4,0,2.5,1.1,2.5,2.5v0C5.5,4.4,4.4,5.5,3,5.5z"/></g>
<g transform="translate(864,816) scale(4.12)"><path d="M6,5.5H3C1.6,5.5,0.5,4.4,0.5,3v0c0-1.4,1.1-2.5,2.5-2.5h3V5.5z"/></g>
<g transform="translate(888,816) scale(4.12)"><path d="M3,5.5H0v-5h3c1.4,0,2.5,1.1,2.5,2.5v0C5.5,4.4,4.4,5.5,3,5.5z"/></g>
<g transform="translate(240,840) scale(4.12)"><path d="M6,5.5H3C1.6,5.5,0.5,4.4,0.5,3v0c0-1.4,1.1-2.5,2.5-2.5h3V5.5z"/></g>
<g transform="translate(264,840) scale(4.12)"><path d="M3,5.5H0v-5h3c1.4,0,2.5,1.1,2.5,2.5v0C5.5,4.4,4.4,5.5,3,5.5z"/></g>
<g transform="translate(336,840) scale(4.12)"><path d="M6,5.5H3C1.6,5.5,0.5,4.4,0.5,3v0c0-1.4,1.1-2.5,2.5-2.5h3V5.5z"/></g>
<g transform="translate(360,840) scale(4.12)"><rect y="0.5" width="6" height="5"/></g>
<g transform="translate(384,840) scale(4.12)"><rect y="0.5" width="6" height="5"/></g>
<g transform="translate(408,840) scale(4.12)"><path d="M3,5.5H0v-5h3c1.4,0,2.5,1.1,2.5,2.5v0C5.5,4.4,4.4,5.5,3,5.5z"/></g>
<g transform="translate(456,840) scale(4.12)"><path d="M6,5.5H3C1.6,5.5,0.5,4.4,0.5,3v0c0-1.4,1.1-2.5,2.5-2.5h3V5.5z"/></g>
<g transform="translate(480,840) scale(4.12)"><path d="M3,5.5H0v-5h3c1.4,0,2.5,1.1,2.5,2.5v0C5.5,4.4,4.4,5.5,3,5.5z"/></g>
<g transform="translate(552,840) scale(4.12)"><circle cx="3" cy="3" r="2.5"/></g>
<g transform="translate(600,840) scale(4.12)"><circle cx="3" cy="3" r="2.5"/></g>
<g transform="translate(696,840) scale(4.12)"><path d="M6,5.5H3C1.6,5.5,0.5,4.4,0.5,3v0c0-1.4,1.1-2.5,2.5-2.5h3V5.5z"/></g>
<g transform="translate(720,840) scale(4.12)"><path d="M3,5.5H0v-5h3c1.4,0,2.5,1.1,2.5,2.5v0C5.5,4.4,4.4,5.5,3,5.5z"/></g>
<g transform="translate(768,840) scale(4.12)"><circle cx="3" cy="3" r="2.5"/></g>
<g transform="translate(816,840) scale(4.12)"><path d="M6,5.5H3C1.6,5.5,0.5,4.4,0.5,3v0c0-1.4,1.1-2.5,2.5-2.5h3V5.5z"/></g>
<g transform="translate(840,840) scale(4.12)"><path d="M3,5.5H0v-5h3c1.4,0,2.5,1.1,2.5,2.5v0C5.5,4.4,4.4,5.5,3,5.5z"/></g>
<g transform="translate(888,840) scale(4.12)"><circle cx="3" cy="3" r="2.5"/></g>
<g transform="translate(240,864) scale(4.12)"><path d="M6,5.5H3C1.6,5.5,0.5,4.4,0.5,3v0c0-1.4,1.1-2.5,2.5-2.5h3V5.5z"/></g>
<g transform="translate(264,864) scale(4.12)"><path d="M3,5.5H0v-5h3c1.4,0,2.5,1.1,2.5,2.5v0C5.5,4.4,4.4,5.5,3,5.5z"/></g>
<g transform="translate(312,864) scale(4.12)"><circle cx="3" cy="3" r="2.5"/></g>
<g transform="translate(384,864) scale(4.12)"><path d="M6,5.5H3C1.6,5.5,0.5,4.4,0.5,3v0c0-1.4,1.1-2.5,2.5-2.5h3V5.5z"/></g>
<g transform="translate(408,864) scale(4.12)"><path d="M3,5.5H0v-5h3c1.4,0,2.5,1.1,2.5,2.5v0C5.5,4.4,4.4,5.5,3,5.5z"/></g>
<g transform="translate(456,864) scale(4.12)"><path d="M6,5.5H3C1.6,5.5,0.5,4.4,0.5,3v0c0-1.4,1.1-2.5,2.5-2.5h3V5.5z"/></g>
<g transform="translate(480,864) scale(4.12)"><path d="M3,5.5H0v-5h3c1.4,0,2.5,1.1,2.5,2.5v0C5.5,4.4,4.4,5.5,3,5.5z"/></g>
<g transform="translate(624,864) scale(4.12)"><path d="M6,5.5H3C1.6,5.5,0.5,4.4,0.5,3v0c0-1.4,1.1-2.5,2.5-2.5h3V5.5z"/></g>
<g transform="translate(648,864) scale(4.12)"><path d="M3,5.5H0v-5h3c1.4,0,2.5,1.1,2.5,2.5v0C5.5,4.4,4.4,5.5,3,5.5z"/></g>
<g transform="translate(720,864) scale(4.12)"><path d="M6,5.5H3C1.6,5.5,0.5,4.4,0.5,3v0c0-1.4,1.1-2.5,2.5-2.5h3V5.5z"/></g>
<g transform="translate(744,864) scale(4.12)"><path d="M3,5.5H0v-5h3c1.4,0,2.5,1.1,2.5,2.5v0C5.5,4.4,4.4,5.5,3,5.5z"/></g>
<g transform="translate(792,864) scale(4.12)"><circle cx="3" cy="3" r="2.5"/></g>
<g transform="translate(840,864) scale(4.12)"><path d="M6,5.5H3C1.6,5.5,0.5,4.4,0.5,3v0c0-1.4,1.1-2.5,2.5-2.5h3V5.5z"/></g>
<g transform="translate(864,864) scale(4.12)"><path d="M3,5.5H0v-5h3c1.4,0,2.5,1.1,2.5,2.5v0C5.5,4.4,4.4,5.5,3,5.5z"/></g>
<g transform="translate(912,864) scale(4.12)"><circle cx="3" cy="3" r="2.5"/></g>
<g transform="translate(240,888) scale(4.12)"><circle cx="3" cy="3" r="2.5"/></g>
<g transform="translate(288,888) scale(4.12)"><path d="M6,5.5H3C1.6,5.5,0.5,4.4,0.5,3v0c0-1.4,1.1-2.5,2.5-2.5h3V5.5z"/></g>
<g transform="translate(312,888) scale(4.12)"><rect y="0.5" width="6" height="5"/></g>
<g transform="translate(336,888) scale(4.12)"><path d="M3,5.5H0v-5h3c1.4,0,2.5,1.1,2.5,2.5v0C5.5,4.4,4.4,5.5,3,5.5z"/></g>
<g transform="translate(408,888) scale(4.12)"><circle cx="3" cy="3" r="2.5"/></g>
<g transform="translate(480,888) scale(4.12)"><path d="M6,5.5H3C1.6,5.5,0.5,4.4,0.5,3v0c0-1.4,1.1-2.5,2.5-2.5h3V5.5z"/></g>
<g transform="translate(504,888) scale(4.12)"><path d="M3,5.5H0v-5h3c1.4,0,2.5,1.1,2.5,2.5v0C5.5,4.4,4.4,5.5,3,5.5z"/></g>
<g transform="translate(552,888) scale(4.12)"><path d="M6,5.5H3C1.6,5.5,0.5,4.4,0.5,3v0c0-1.4,1.1-2.5,2.5-2.5h3V5.5z"/></g>
<g transform="translate(576,888) scale(4.12)"><path d="M3,5.5H0v-5h3c1.4,0,2.5,1.1,2.5,2.5v0C5.5,4.4,4.4,5.5,3,5.5z"/></g>
<g transform="translate(696,888) scale(4.12)"><path d="M6,5.5H3C1.6,5.5,0.5,4.4,0.5,3v0c0-1.4,1.1-2.5,2.5-2.5h3V5.5z"/></g>
<g transform="translate(720,888) scale(4.12)"><path d="M3,5.5H0v-5h3c1.4,0,2.5,1.1,2.5,2.5v0C5.5,4.4,4.4,5.5,3,5.5z"/></g>
<g transform="translate(768,888) scale(4.12)"><path d="M6,5.5H3C1.6,5.5,0.5,4.4,0.5,3v0c0-1.4,1.1-2.5,2.5-2.5h3V5.5z"/></g>
<g transform="translate(792,888) scale(4.12)"><rect y="0.5" width="6" height="5"/></g>
<g transform="translate(816,888) scale(4.12)"><path d="M3,5.5H0v-5h3c1.4,0,2.5,1.1,2.5,2.5v0C5.5,4.4,4.4,5.5,3,5.5z"/></g>
<g transform="translate(912,888) scale(4.12)"><circle cx="3" cy="3" r="2.5"/></g>
<g transform="translate(288,912) scale(4.12)"><path d="M6,5.5H3C1.6,5.5,0.5,4.4,0.5,3v0c0-1.4,1.1-2.5,2.5-2.5h3V5.5z"/></g>
<g transform="translate(312,912) scale(4.12)"><path d="M3,5.5H0v-5h3c1.4,0,2.5,1.1,2.5,2.5v0C5.5,4.4,4.4,5.5,3,5.5z"/></g>
<g transform="translate(384,912) scale(4.12)"><circle cx="3" cy="3" r="2.5"/></g>
<g transform="translate(456,912) scale(4.12)"><circle cx="3" cy="3" r="2.5"/></g>
<g transform="translate(648,912) scale(4.12)"><path d="M6,5.5H3C1.6,5.5,0.5,4.4,0.5,3v0c0-1.4,1.1-2.5,2.5-2.5h3V5.5z"/></g>
<g transform="translate(672,912) scale(4.12)"><path d="M3,5.5H0v-5h3c1.4,0,2.5,1.1,2.5,2.5v0C5.5,4.4,4.4,5.5,3,5.5z"/></g>
<g transform="translate(768,912) scale(4.12)"><circle cx="3" cy="3" r="2.5"/></g>
<g transform="translate(840,912) scale(4.12)"><path d="M6,5.5H3C1.6,5.5,0.5,4.4,0.5,3v0c0-1.4,1.1-2.5,2.5-2.5h3V5.5z"/></g>
<g transform="translate(864,912) scale(4.12)"><rect y="0.5" width="6" height="5"/></g>
<g transform="translate(888,912) scale(4.12)"><rect y="0.5" width="6" height="5"/></g>
<g transform="translate(912,912) scale(4.12)"><path d="M3,5.5H0v-5h3c1.4,0,2.5,1.1,2.5,2.5v0C5.5,4.4,4.4,5.5,3,5.5z"/></g>
<g transform="translate(48,48)"><g transform="scale(12)"><path d="M0,0l0,7c0,3.9,3.1,7,7,7h7V7c0-3.9-3.1-7-7-7H0z M12,12H7c-2.8,0-5-2.2-5-5V2h5c2.8,0,5,2.2,5,5V12z"/></g></g>
<g transform="translate(768,48)"><g transform="scale(12) rotate(90 7 7)"><path d="M0,0l0,7c0,3.9,3.1,7,7,7h7V7c0-3.9-3.1-7-7-7H0z M12,12H7c-2.8,0-5-2.2-5-5V2h5c2.8,0,5,2.2,5,5V12z"/></g></g>
<g transform="translate(48,768)"><g transform="scale(12) rotate(-90 7 7)"><path d="M0,0l0,7c0,3.9,3.1,7,7,7h7V7c0-3.9-3.1-7-7-7H0z M12,12H7c-2.8,0-5-2.2-5-5V2h5c2.8,0,5,2.2,5,5V12z"/></g></g>
<g transform="translate(96,96)"><g transform="scale(12)"><path d="M6,6H3C1.3,6,0,4.7,0,3l0-3l3,0c1.7,0,3,1.3,3,3V6z"/></g></g>
<g transform="translate(816,96)"><g transform="scale(12) rotate(90 3 3)"><path d="M6,6H3C1.3,6,0,4.7,0,3l0-3l3,0c1.7,0,3,1.3,3,3V6z"/></g></g>
<g transform="translate(96,816)"><g transform="scale(12) rotate(-90 3 3)"><path d="M6,6H3C1.3,6,0,4.7,0,3l0-3l3,0c1.7,0,3,1.3,3,3V6z"/></g></g>
</g></svg>
