<?xml version="1.0" encoding="utf-8"?>
<svg xmlns="http://www.w3.org/2000/svg" xmlns:xlink="http://www.w3.org/1999/xlink" xml:space="preserve" width="999" height="999" viewBox="0 0 999 999"><rect width="999" height="999" fill="#ffffff" x="0" y="0"/><g fill="#000000">
<g transform="translate(270,54) scale(4.635)"><circle cx="3" cy="3" r="2.5"/></g>
<g transform="translate(324,54) scale(4.635)"><path d="M6,5.5H3C1.6,5.5,0.5,4.4,0.5,3v0c0-1.4,1.1-2.5,2.5-2.5h3V5.5z"/></g>
<g transform="translate(351,54) scale(4.635)"><rect y="0.5" width="6" height="5"/></g>
<g transform="translate(378,54) scale(4.635)"><rect y="0.5" width="6" height="5"/></g>
<g transform="translate(405,54) scale(4.635)"><rect y="0.5" width="6" height="5"/></g>
<g transform="translate(432,54) scale(4.635)"><path d="M3,5.5H0v-5h3c1.4,0,2.5,1.1,2.5,2.5v0C5.5,4.4,4.4,5.5,3,5.5z"/></g>
<g transform="translate(486,54) scale(4.635)"><circle cx="3" cy="3" r="2.5"/></g>
<g transform="translate(567,54) scale(4.635)"><path d="M6,5.5H3C1.6,5.5,0.5,4.4,0.5,3v0c0-1.4,1.1-2.5,2.5-2.5h3V5.5z"/></g>
<g transform="translate(594,54) scale(4.635)"><rect y="0.5" width="6" height="5"/></g>
<g transform="translate(621,54) scale(4.635)"><path d="M3,5.5H0v-5h3c1.4,0,2.5,1.1,2.5,2.5v0C5.5,4.4,4.4,5.5,3,5.5z"/></g>
<g transform="translate(675,54) scale(4.635)"><circle cx="3" cy="3" r="2.5"/></g>
<g transform="translate(297,81) scale(4.635)"><circle cx="3" cy="3" r="2.5"/></g>
<g transform="translate(378,81) scale(4.635)"><path d="M6,5.5H3C1.6,5.5,0.5,4.4,0.5,3v0c0-1.4,1.1-2.5,2.5-2.5h3V5.5z"/></g>
<g transform="translate(405,81) scale(4.635)"><path d="M3,5.5H0v-5h3c1.4,0,2.5,1.1,2.5,2.5v0C5.5,4.4,4.4,5.5,3,5.5z"/></g>
<g transform="translate(486,81) scale(4.635)"><circle cx="3" cy="3" r="2.5"/></g>
<g transform="translate(540,81) scale(4.635)"><circle cx="3" cy="3" r="2.5"/></g>
<g transform="translate(594,81) scale(4.635)"><path d="M6,5.5H3C1.6,5.5,0.5,4.4,0.5,3v0c0-1.4,1.1-2.5,2.5-2.5h3V5.5z"/></g>
<g transform="translate(621,81) scale(4.635)"><path d="M3,5.5H0v-5h3c1.4,0,2.5,1.1,2.5,2.5v0C5.5,4.4,4.4,5.5,3,5.5z"/></g>
<g transform="translate(702,81) scale(4.635)"><circle cx="3" cy="3" r="2.5"/></g>
<g transform="translate(432,108) scale(4.635)"><circle cx="3" cy="3" r="2.5"/></g>
<g transform="translate(486,108) scale(4.635)"><circle cx="3" cy="3" r="2.5"/></g>
<g transform="translate(567,108) scale(4.635)"><path d="M6,5.5H3C1.6,5.5,0.5,4.4,0.5,3v0c0-1.4,1.1-2.5,2.5-2.5h3V5.5z"/></g>
<g transform="translate(594,108) scale(4.635)"><rect y="0.5" width="6" height="5"/></g>
<g transform="translate(621,108) scale(4.635)"><rect y="0.5" width="6" height="5"/></g>
<g transform="translate(648,108) scale(4.635)"><rect y="0.5" width="6" height="5"/></g>
<g transform="translate(675,108) scale(4.635)"><path d="M3,5.5H0v-5h3c1.4,0,2.5,1.1,2.5,2.5v0C5.5,4.4,4.4,5.5,3,5.5z"/></g>
<g transform="translate(324,135) scale(4.635)"><path d="M6,5.5H3C1.6,5.5,0.5,4.4,0.5,3v0c0-1.4,1.1-2.5,2.5-2.5h3V5.5z"/></g>
<g transform="translate(351,135) scale(4.635)"><rect y="0.5" width="6" height="5"/></g>
<g transform="translate(378,135) scale(4.635)"><rect y="0.5" width="6" height="5"/></g>
<g transform="translate(405,135) scale(4.635)"><rect y="0.5" width="6" height="5"/></g>
<g transform="translate(432,135) scale(4.635)"><rect y="0.5" width="6" height="5"/></g>
<g transform="translate(459,135) scale(4.635)"><rect y="0.5" width="6" height="5"/></g>
<g transform="translate(486,135) scale(4.635)"><path d="M3,5.5H0v-5h3c1.4,0,2.5,1.1,2.5,2.5v0C5.5,4.4,4.4,5.5,3,5.5z"/></g>
<g transform="translate(540,135) scale(4.635)"><path d="M6,5.5H3C1.6,5.5,0.5,4.4,0.5,3v0c0-1.4,1.1-2.5,2.5-2.5h3V5.5z"/></g>
<g transform="translate(567,135) scale(4.635)"><path d="M3,5.5H0v-5h3c1.4,0,2.5,1.1,2.5,2.5v0C5.5,4.4,4.4,5.5,3,5.5z"/></g>
<g transform="translate(621,135) scale(4.635)"><circle cx="3" cy="3" r="2.5"/></g>
<g transform="translate(675,135) scale(4.635)"><path d="M6,5.5H3C1.6,5.5,0.5,4.4,0.5,3v0c0-1.4,1.1-2.5,2.5-2.5h3V5.5z"/></g>
<g transform="translate(702,135) scale(4.635)"><path d="M3,5.5H0v-5h3c1.4,0,2.5,1.1,2.5,2.5v0C5.5,4.4,4.4,5.5,3,5.5z"/></g>
<g transform="translate(270,162) scale(4.635)"><path d="M6,5.5H3C1.6,5.5,0.5,4.4,0.5,3v0c0-1.4,1.1-2.5,2.5-2.5h3V5.5z"/></g>
<g transform="translate(297,162) scale(4.635)"><rect y="0.5" width="6" height="5"/></g>
<g transform="translate(324,162) scale(4.635)"><rect y="0.5" width="6" height="5"/></g>
<g transform="translate(351,162) scale(4.635)"><rect y="0.5" width="6" height="5"/></g>
<g transform="translate(378,162) scale(4.635)"><path d="M3,5.5H0v-5h3c1.4,0,2.5,1.1,2.5,2.5v0C5.5,4.4,4.4,5.5,3,5.5z"/></g>
<g transform="translate(459,162) scale(4.635)"><circle cx="3" cy="3" r="2.5"/></g>
<g transform="translate(594,162) scale(4.635)"><circle cx="3" cy="3" r="2.5"/></g>
<g transform="translate(648,162) scale(4.635)"><circle cx="3" cy="3" r="2.5"/></g>
<g transform="translate(270,189) scale(4.635)"><circle cx="3" cy="3" r="2.5"/></g>
<g transform="translate(324,189) scale(4.635)"><path d="M6,5.5H3C1.6,5.5,0.5,4.4,0.5,3v0c0-1.4,1.1-2.5,2.5-2.5h3V5.5z"/></g>
<g transform="translate(351,189) scale(4.635)"><rect y="0.5" width="6" height="5"/></g>
<g transform="translate(378,189) scale(4.635)"><path d="M3,5.5H0v-5h3c1.4,0,2.5,1.1,2.5,2.5v0C5.5,4.4,4.4,5.5,3,5.5z"/></g>
<g transform="translate(486,189) scale(4.635)"><path d="M6,5.5H3C1.6,5.5,0.5,4.4,0.5,3v0c0-1.4,1.1-2.5,2.5-2.5h3V5.5z"/></g>
<g transform="translate(513,189) scale(4.635)"><path d="M3,5.5H0v-5h3c1.4,0,2.5,1.1,2.5,2.5v0C5.5,4.4,4.4,5.5,3,5.5z"/></g>
<g transform="translate(567,189) scale(4.635)"><circle cx="3" cy="3" r="2.5"/></g>
<g transform="translate(648,189) scale(4.635)"><path d="M6,5.5H3C1.6,5.5,0.5,4.4,0.5,3v0c0-1.4,1.1-2.5,2.5-2.5h3V5.5z"/></g>
<g transform="translate(675,189) scale(4.635)"><rect y="0.5" width="6" height="5"/></g>
<g transform="translate(702,189) scale(4.635)"><path d="M3,5.5H0v-5h3c1.4,0,2.5,1.1,2.5,2.5v0C5.5,4.4,4.4,5.5,3,5.5z"/></g>
<g transform="translate(270,216) scale(4.635)"><circle cx="3" cy="3" r="2.5"/></g>
<g transform="translate(324,216) scale(4.635)"><circle cx="3" cy="3" r="2.5"/></g>
<g transform="translate(378,216) scale(4.635)"><circle cx="3" cy="3" r="2.5"/></g>
<g transform="translate(432,216) scale(4.635)"><circle cx="3" cy="3" r="2.5"/></g>
<g transform="translate(486,216) scale(4.635)"><circle cx="3" cy="3" r="2.5"/></g>
<g transform="translate(540,216) scale(4.635)"><circle cx="3" cy="3" r="2.5"/></g>
<g transform="translate(594,216) scale(4.635)"><circle cx="3" cy="3" r="2.5"/></g>
<g transform="translate(648,216) scale(4.635)"><circle cx="3" cy="3" r="2.5"/></g>
<g transform="translate(702,216) scale(4.635)"><circle cx="3" cy="3" r="2.5"/></g>
<g transform="translate(324,243) scale(4.635)"><path d="M6,5.5H3C1.6,5.5,0.5,4.4,0.5,3v0c0-1.4,1.1-2.5,2.5-2.5h3V5.5z"/></g>
<g transform="translate(351,243) scale(4.635)"><rect y="0.5" width="6" height="5"/></g>
<g transform="translate(378,243) scale(4.635)"><rect y="0.5" width="6" height="5"/></g>
<g transform="translate(405,243) scale(4.635)"><rect y="0.5" width="6" height="5"/></g>
<g transform="translate(432,243) scale(4.635)"><path d="M3,5.5H0v-5h3c1.4,0,2.5,1.1,2.5,2.5v0C5.5,4.4,4.4,5.5,3,5.5z"/></g>
<g transform="translate(540,243) scale(4.635)"><path d="M6,5.5H3C1.6,5.5,0.5,4.4,0.5,3v0c0-1.4,1.1-2.5,2.5-2.5h3V5.5z"/></g>
<g transform="translate(567,243) scale(4.635)"><rect y="0.5" width="6" height="5"/></g>
<g transform="translate(594,243) scale(4.635)"><rect y="0.5" width="6" height="5"/></g>
<g transform="translate(621,243) scale(4.635)"><rect y="0.5" width="6" height="5"/></g>
<g transform="translate(648,243) scale(4.635)"><rect y="0.5" width="6" height="5"/></g>
<g transform="translate(675,243) scale(4.635)"><path d="M3,5.5H0v-5h3c1.4,0,2.5,1.1,2.5,2.5v0C5.5,4.4,4.4,5.5,3,5.5z"/></g>
<g transform="translate(81,270) scale(4.635)"><path d="M6,5.5H3C1.6,5.5,0.5,4.4,0.5,3v0c0-1.4,1.1-2.5,2.5-2.5h3V5.5z"/></g>
<g transform="translate(108,270) scale(4.635)"><rect y="0.5" width="6" height="5"/></g>
<g transform="translate(135,270) scale(4.635)"><rect y="0.5" width="6" height="5"/></g>
<g transform="translate(162,270) scale(4.635)"><rect y="0.5" width="6" height="5"/></g>
<g transform="translate(189,270) scale(4.635)"><rect y="0.5" width="6" height="5"/></g>
<g transform="translate(216,270) scale(4.635)"><rect y="0.5" width="6" height="5"/></g>
<g transform="translate(243,270) scale(4.635)"><path d="M3,5.5H0v-5h3c1.4,0,2.5,1.1,2.5,2.5v0C5.5,4.4,4.4,5.5,3,5.5z"/></g>
<g transform="translate(297,270) scale(4.635)"><path d="M6,5.5H3C1.6,5.5,0.5,4.4,0.5,3v0c0-1.4,1.1-2.5,2.5-2.5h3V5.5z"/></g>
<g transform="translate(324,270) scale(4.635)"><rect y="0.5" width="6" height="5"/></g>
<g transform="translate(351,270) scale(4.635)"><path d="M3,5.5H0v-5h3c1.4,0,2.5,1.1,2.5,2.5v0C5.5,4.4,4.4,5.5,3,5.5z"/></g>
<g transform="translate(432,270) scale(4.635)"><circle cx="3" cy="3" r="2.5"/></g>
<g transform="translate(513,270) scale(4.635)"><circle cx="3" cy="3" r="2.5"/></g>
<g transform="translate(567,270) scale(4.635)"><circle cx="3" cy="3" r="2.5"/></g>
<g transform="translate(648,270) scale(4.635)"><path d="M6,5.5H3C1.6,5.5,0.5,4.4,0.5,3v0c0-1.4,1.1-2.5,2.5-2.5h3V5.5z"/></g>
<g transform="translate(675,270) scale(4.635)"><rect y="0.5" width="6" height="5"/></g>
<g transform="translate(702,270) scale(4.635)"><path d="M3,5.5H0v-5h3c1.4,0,2.5,1.1,2.5,2.5v0C5.5,4.4,4.4,5.5,3,5.5z"/></g>
<g transform="translate(783,270) scale(4.635)"><path d="M6,5.5H3C1.6,5.5,0.5,4.4,0.5,3v0c0-1.4,1.1-2.5,2.5-2.5h3V5.5z"/></g>
<g transform="translate(810,270) scale(4.635)"><path d="M3,5.5H0v-5h3c1.4,0,2.5,1.1,2.5,2.5v0C5.5,4.4,4.4,5.5,3,5.5z"/></g>
<g transform="translate(918,270) scale(4.635)"><circle cx="3" cy="3" r="2.5"/></g>
<g transform="translate(81,297) scale(4.635)"><path d="M6,5.5H3C1.6,5.5,0.5,4.4,0.5,3v0c0-1.4,1.1-2.5,2.5-2.5h3V5.5z"/></g>
<g transform="translate(108,297) scale(4.635)"><rect y="0.5" width="6" height="5"/></g>
<g transform="translate(135,297) scale(4.635)"><path d="M3,5.5H0v-5h3c1.4,0,2.5,1.1,2.5,2.5v0C5.5,4.4,4.4,5.5,3,5.5z"/></g>
<g transform="translate(189,297) scale(4.635)"><circle cx="3" cy="3" r="2.5"/></g>
<g transform="translate(243,297) scale(4.635)"><circle cx="3" cy="3" r="2.5"/></g>
<g transform="translate(324,297) scale(4.635)"><circle cx="3" cy="3" r="2.5"/></g>
<g transform="translate(378,297) scale(4.635)"><path d="M6,5.5H3C1.6,5.5,0.5,4.4,0.5,3v0c0-1.4,1.1-2.5,2.5-2.5h3V5.5z"/></g>
<g transform="translate(405,297) scale(4.635)"><rect y="0.5" width="6" height="5"/></g>
<g transform="translate(432,297) scale(4.635)"><rect y="0.5" width="6" height="5"/></g>
<g transform="translate(459,297) scale(4.635)"><path d="M3,5.5H0v-5h3c1.4,0,2.5,1.1,2.5,2.5v0C5.5,4.4,4.4,5.5,3,5.5z"/></g>
<g transform="translate(513,297) scale(4.635)"><path d="M6,5.5H3C1.6,5.5,0.5,4.4,0.5,3v0c0-1.4,1.1-2.5,2.5-2.5h3V5.5z"/></g>
<g transform="translate(540,297) scale(4.635)"><rect y="0.5" width="6" height="5"/></g>
<g transform="translate(567,297) scale(4.635)"><rect y="0.5" width="6" height="5"/></g>
<g transform="translate(594,297) scale(4.635)"><path d="M3,5.5H0v-5h3c1.4,0,2.5,1.1,2.5,2.5v0C5.5,4.4,4.4,5.5,3,5.5z"/></g>
<g transform="translate(648,297) scale(4.635)"><path d="M6,5.5H3C1.6,5.5,0.5,4.4,0.5,3v0c0-1.4,1.1-2.5,2.5-2.5h3V5.5z"/></g>
<g transform="translate(675,297) scale(4.635)"><path d="M3,5.5H0v-5h3c1.4,0,2.5,1.1,2.5,2.5v0C5.5,4.4,4.4,5.5,3,5.5z"/></g>
<g transform="translate(756,297) scale(4.635)"><path d="M6,5.5H3C1.6,5.5,0.5,4.4,0.5,3v0c0-1.4,1.1-2.5,2.5-2.5h3V5.5z"/></g>
<g transform="translate(783,297) scale(4.635)"><path d="M3,5.5H0v-5h3c1.4,0,2.5,1.1,2.5,2.5v0C5.5,4.4,4.4,5.5,3,5.5z"/></g>
<g transform="translate(837,297) scale(4.635)"><path d="M6,5.5H3C1.6,5.5,0.5,4.4,0.5,3v0c0-1.4,1.1-2.5,2.5-2.5h3V5.5z"/></g>
<g transform="translate(864,297) scale(4.635)"><path d="M3,5.5H0v-5h3c1.4,0,2.5,1.1,2.5,2.5v0C5.5,4.4,4.4,5.5,3,5.5z"/></g>
<g transform="translate(918,297) scale(4.635)"><circle cx="3" cy="3" r="2.5"/></g>
<g transform="translate(54,324) scale(4.635)"><path d="M6,5.5H3C1.6,5.5,0.5,4.4,0.5,3v0c0-1.4,1.1-2.5,2.5-2.5h3V5.5z"/></g>
<g transform="translate(81,324) scale(4.635)"><rect y="0.5" width="6" height="5"/></g>
<g transform="translate(108,324) scale(4.635)"><path d="M3,5.5H0v-5h3c1.4,0,2.5,1.1,2.5,2.5v0C5.5,4.4,4.4,5.5,3,5.5z"/></g>
<g transform="translate(189,324) scale(4.635)"><path d="M6,5.5H3C1.6,5.5,0.5,4.4,0.5,3v0c0-1.4,1.1-2.5,2.5-2.5h3V5.5z"/></g>
<g transform="translate(216,324) scale(4.635)"><rect y="0.5" width="6" height="5"/></g>
<g transform="translate(243,324) scale(4.635)"><rect y="0.5" width="6" height="5"/></g>
<g transform="translate(270,324) scale(4.635)"><rect y="0.5" width="6" height="5"/></g>
<g transform="translate(297,324) scale(4.635)"><rect y="0.5" width="6" height="5"/></g>
<g transform="translate(324,324) scale(4.635)"><path d="M3,5.5H0v-5h3c1.4,0,2.5,1.1,2.5,2.5v0C5.5,4.4,4.4,5.5,3,5.5z"/></g>
<g transform="translate(378,324) scale(4.635)"><circle cx="3" cy="3" r="2.5"/></g>
<g transform="translate(513,324) scale(4.635)"><circle cx="3" cy="3" r="2.5"/></g>
<g transform="translate(648,324) scale(4.635)"><circle cx="3" cy="3" r="2.5"/></g>
<g transform="translate(702,324) scale(4.635)"><circle cx="3" cy="3" r="2.5"/></g>
<g transform="translate(810,324) scale(4.635)"><circle cx="3" cy="3" r="2.5"/></g>
<g transform="translate(864,324) scale(4.635)"><path d="M6,5.5H3C1.6,5.5,0.5,4.4,0.5,3v0c0-1.4,1.1-2.5,2.5-2.5h3V5.5z"/></g>
<g transform="translate(891,324) scale(4.635)"><path d="M3,5.5H0v-5h3c1.4,0,2.5,1.1,2.5,2.5v0C5.5,4.4,4.4,5.5,3,5.5z"/></g>
<g transform="translate(54,351) scale(4.635)"><circle cx="3" cy="3" r="2.5"/></g>
<g transform="translate(108,351) scale(4.635)"><circle cx="3" cy="3" r="2.5"/></g>
<g transform="translate(162,351) scale(4.635)"><circle cx="3" cy="3" r="2.5"/></g>
<g transform="translate(297,351) scale(4.635)"><path d="M6,5.5H3C1.6,5.5,0.5,4.4,0.5,3v0c0-1.4,1.1-2.5,2.5-2.5h3V5.5z"/></g>
<g transform="translate(324,351) scale(4.635)"><path d="M3,5.5H0v-5h3c1.4,0,2.5,1.1,2.5,2.5v0C5.5,4.4,4.4,5.5,3,5.5z"/></g>
<g transform="translate(378,351) scale(4.635)"><path d="M6,5.5H3C1.6,5.5,0.5,4.4,0.5,3v0c0-1.4,1.1-2.5,2.5-2.5h3V5.5z"/></g>
<g transform="translate(405,351) scale(4.635)"><path d="M3,5.5H0v-5h3c1.4,0,2.5,1.1,2.5,2.5v0C5.5,4.4,4.4,5.5,3,5.5z"/></g>
<g transform="translate(459,351) scale(4.635)"><path d="M6,5.5H3C1.6,5.5,0.5,4.4,0.5,3v0c0-1.4,1.1-2.5,2.5-2.5h3V5.5z"/></g>
<g transform="translate(486,351) scale(4.635)"><rect y="0.5" width="6" height="5"/></g>
<g transform="translate(513,351) scale(4.635)"><rect y="0.5" width="6" height="5"/></g>
<g transform="translate(540,351) scale(4.635)"><path d="M3,5.5H0v-5h3c1.4,0,2.5,1.1,2.5,2.5v0C5.5,4.4,4.4,5.5,3,5.5z"/></g>
<g transform="translate(594,351) scale(4.635)"><circle cx="3" cy="3" r="2.5"/></g>
<g transform="translate(675,351) scale(4.635)"><circle cx="3" cy="3" r="2.5"/></g>
<g transform="translate(756,351) scale(4.635)"><circle cx="3" cy="3" r="2.5"/></g>
<g transform="translate(810,351) scale(4.635)"><path d="M6,5.5H3C1.6,5.5,0.5,4.4,0.5,3v0c0-1.4,1.1-2.5,2.5-2.5h3V5.5z"/></g>
<g transform="translate(837,351) scale(4.635)"><rect y="0.5" width="6" height="5"/></g>
<g transform="translate(864,351) scale(4.635)"><path d="M3,5.5H0v-5h3c1.4,0,2.5,1.1,2.5,2.5v0C5.5,4.4,4.4,5.5,3,5.5z"/></g>
<g transform="translate(54,378) scale(4.635)"><path d="M6,5.5H3C1.6,5.5,0.5,4.4,0.5,3v0c0-1.4,1.1-2.5,2.5-2.5h3V5.5z"/></g>
<g transform="translate(81,378) scale(4.635)"><rect y="0.5" width="6" height="5"/></g>
<g transform="translate(108,378) scale(4.635)"><path d="M3,5.5H0v-5h3c1.4,0,2.5,1.1,2.5,2.5v0C5.5,4.4,4.4,5.5,3,5.5z"/></g>
<g transform="translate(189,378) scale(4.635)"><path d="M6,5.5H3C1.6,5.5,0.5,4.4,0.5,3v0c0-1.4,1.1-2.5,2.5-2.5h3V5.5z"/></g>
<g transform="translate(216,378) scale(4.635)"><path d="M3,5.5H0v-5h3c1.4,0,2.5,1.1,2.5,2.5v0C5.5,4.4,4.4,5.5,3,5.5z"/></g>
<g transform="translate(270,378) scale(4.635)"><path d="M6,5.5H3C1.6,5.5,0.5,4.4,0.5,3v0c0-1.4,1.1-2.5,2.5-2.5h3V5.5z"/></g>
<g transform="translate(297,378) scale(4.635)"><rect y="0.5" width="6" height="5"/></g>
<g transform="translate(324,378) scale(4.635)"><rect y="0.5" width="6" height="5"/></g>
<g transform="translate(351,378) scale(4.635)"><rect y="0.5" width="6" height="5"/></g>
<g transform="translate(378,378) scale(4.635)"><rect y="0.5" width="6" height="5"/></g>
<g transform="translate(405,378) scale(4.635)"><rect y="0.5" width="6" height="5"/></g>
<g transform="translate(432,378) scale(4.635)"><path d="M3,5.5H0v-5h3c1.4,0,2.5,1.1,2.5,2.5v0C5.5,4.4,4.4,5.5,3,5.5z"/></g>
<g transform="translate(567,378) scale(4.635)"><path d="M6,5.5H3C1.6,5.5,0.5,4.4,0.5,3v0c0-1.4,1.1-2.5,2.5-2.5h3V5.5z"/></g>
<g transform="translate(594,378) scale(4.635)"><rect y="0.5" width="6" height="5"/></g>
<g transform="translate(621,378) scale(4.635)"><rect y="0.5" width="6" height="5"/></g>
<g transform="translate(648,378) scale(4.635)"><rect y="0.5" width="6" height="5"/></g>
<g transform="translate(675,378) scale(4.635)"><path d="M3,5.5H0v-5h3c1.4,0,2.5,1.1,2.5,2.5v0C5.5,4.4,4.4,5.5,3,5.5z"/></g>
<g transform="translate(729,378) scale(4.635)"><circle cx="3" cy="3" r="2.5"/></g>
<g transform="translate(810,378) scale(4.635)"><path d="M6,5.5H3C1.6,5.5,0.5,4.4,0.5,3v0c0-1.4,1.1-2.5,2.5-2.5h3V5.5z"/></g>
<g transform="translate(837,378) scale(4.635)"><path d="M3,5.5H0v-5h3c1.4,0,2.5,1.1,2.5,2.5v0C5.5,4.4,4.4,5.5,3,5.5z"/></g>
<g transform="translate(891,378) scale(4.635)"><path d="M6,5.5H3C1.6,5.5,0.5,4.4,0.5,3v0c0-1.4,1.1-2.5,2.5-2.5h3V5.5z"/></g>
<g transform="translate(918,378) scale(4.635)"><path d="M3,5.5H0v-5h3c1.4,0,2.5,1.1,2.5,2.5v0C5.5,4.4,4.4,5.5,3,5.5z"/></g>
<g transform="translate(81,405) scale(4.635)"><circle cx="3" cy="3" r="2.5"/></g>
<g transform="translate(162,405) scale(4.635)"><path d="M6,5.5H3C1.6,5.5,0.5,4.4,0.5,3v0c0-1.4,1.1-2.5,2.5-2.5h3V5.5z"/></g>
<g transform="translate(189,405) scale(4.635)"><path d="M3,5.5H0v-5h3c1.4,0,2.5,1.1,2.5,2.5v0C5.5,4.4,4.4,5.5,3,5.5z"/></g>
<g transform="translate(270,405) scale(4.635)"><circle cx="3" cy="3" r="2.5"/></g>
<g transform="translate(324,405) scale(4.635)"><path d="M6,5.5H3C1.6,5.5,0.5,4.4,0.5,3v0c0-1.4,1.1-2.5,2.5-2.5h3V5.5z"/></g>
<g transform="translate(351,405) scale(4.635)"><rect y="0.5" width="6" height="5"/></g>
<g transform="translate(378,405) scale(4.635)"><path d="M3,5.5H0v-5h3c1.4,0,2.5,1.1,2.5,2.5v0C5.5,4.4,4.4,5.5,3,5.5z"/></g>
<g transform="translate(459,405) scale(4.635)"><path d="M6,5.5H3C1.6,5.5,0.5,4.4,0.5,3v0c0-1.4,1.1-2.5,2.5-2.5h3V5.5z"/></g>
<g transform="translate(486,405) scale(4.635)"><path d="M3,5.5H0v-5h3c1.4,0,2.5,1.1,2.5,2.5v0C5.5,4.4,4.4,5.5,3,5.5z"/></g>
<g transform="translate(540,405) scale(4.635)"><circle cx="3" cy="3" r="2.5"/></g>
<g transform="translate(621,405) scale(4.635)"><circle cx="3" cy="3" r="2.5"/></g>
<g transform="translate(702,405) scale(4.635)"><circle cx="3" cy="3" r="2.5"/></g>
<g transform="translate(756,405) scale(4.635)"><circle cx="3" cy="3" r="2.5"/></g>
<g transform="translate(891,405) scale(4.635)"><path d="M6,5.5H3C1.6,5.5,0.5,4.4,0.5,3v0c0-1.4,1.1-2.5,2.5-2.5h3V5.5z"/></g>
<g transform="translate(918,405) scale(4.635)"><path d="M3,5.5H0v-5h3c1.4,0,2.5,1.1,2.5,2.5v0C5.5,4.4,4.4,5.5,3,5.5z"/></g>
<g transform="translate(189,432) scale(4.635)"><path d="M6,5.5H3C1.6,5.5,0.5,4.4,0.5,3v0c0-1.4,1.1-2.5,2.5-2.5h3V5.5z"/></g>
<g transform="translate(216,432) scale(4.635)"><path d="M3,5.5H0v-5h3c1.4,0,2.5,1.1,2.5,2.5v0C5.5,4.4,4.4,5.5,3,5.5z"/></g>
<g transform="translate(270,432) scale(4.635)"><path d="M6,5.5H3C1.6,5.5,0.5,4.4,0.5,3v0c0-1.4,1.1-2.5,2.5-2.5h3V5.5z"/></g>
<g transform="translate(297,432) scale(4.635)"><path d="M3,5.5H0v-5h3c1.4,0,2.5,1.1,2.5,2.5v0C5.5,4.4,4.4,5.5,3,5.5z"/></g>
<g transform="translate(405,432) scale(4.635)"><path d="M6,5.5H3C1.6,5.5,0.5,4.4,0.5,3v0c0-1.4,1.1-2.5,2.5-2.5h3V5.5z"/></g>
<g transform="translate(432,432) scale(4.635)"><rect y="0.5" width="6" height="5"/></g>
<g transform="translate(459,432) scale(4.635)"><path d="M3,5.5H0v-5h3c1.4,0,2.5,1.1,2.5,2.5v0C5.5,4.4,4.4,5.5,3,5.5z"/></g>
<g transform="translate(513,432) scale(4.635)"><path d="M6,5.5H3C1.6,5.5,0.5,4.4,0.5,3v0c0-1.4,1.1-2.5,2.5-2.5h3V5.5z"/></g>
<g transform="translate(540,432) scale(4.635)"><path d="M3,5.5H0v-5h3c1.4,0,2.5,1.1,2.5,2.5v0C5.5,4.4,4.4,5.5,3,5.5z"/></g>
<g transform="translate(594,432) scale(4.635)"><circle cx="3" cy="3" r="2.5"/></g>
<g transform="translate(729,432) scale(4.635)"><path d="M6,5.5H3C1.6,5.5,0.5,4.4,0.5,3v0c0-1.4,1.1-2.5,2.5-2.5h3V5.5z"/></g>
<g transform="translate(756,432) scale(4.635)"><path d="M3,5.5H0v-5h3c1.4,0,2.5,1.1,2.5,2.5v0C5.5,4.4,4.4,5.5,3,5.5z"/></g>
<g transform="translate(810,432) scale(4.635)"><path d="M6,5.5H3C1.6,5.5,0.5,4.4,0.5,3v0c0-1.4,1.1-2.5,2.5-2.5h3V5.5z"/></g>
<g transform="translate(837,432) scale(4.635)"><rect y="0.5" width="6" height="5"/></g>
<g transform="translate(864,432) scale(4.635)"><rect y="0.5" width="6" height="5"/></g>
<g transform="translate(891,432) scale(4.635)"><path d="M3,5.5H0v-5h3c1.4,0,2.5,1.1,2.5,2.5v0C5.5,4.4,4.4,5.5,3,5.5z"/></g>
<g transform="translate(189,459) scale(4.635)"><circle cx="3" cy="3" r="2.5"/></g>
<g transform="translate(297,459) scale(4.635)"><path d="M6,5.5H3C1.6,5.5,0.5,4.4,0.5,3v0c0-1.4,1.1-2.5,2.5-2.5h3V5.5z"/></g>
<g transform="translate(324,459) scale(4.635)"><rect y="0.5" width="6" height="5"/></g>
<g transform="translate(351,459) scale(4.635)"><path d="M3,5.5H0v-5h3c1.4,0,2.5,1.1,2.5,2.5v0C5.5,4.4,4.4,5.5,3,5.5z"/></g>
<g transform="translate(405,459) scale(4.635)"><path d="M6,5.5H3C1.6,5.5,0.5,4.4,0.5,3v0c0-1.4,1.1-2.5,2.5-2.5h3V5.5z"/></g>
<g transform="translate(432,459) scale(4.635)"><rect y="0.5" width="6" height="5"/></g>
<g transform="translate(459,459) scale(4.635)"><path d="M3,5.5H0v-5h3c1.4,0,2.5,1.1,2.5,2.5v0C5.5,4.4,4.4,5.5,3,5.5z"/></g>
<g transform="translate(513,459) scale(4.635)"><circle cx="3" cy="3" r="2.5"/></g>
<g transform="translate(621,459) scale(4.635)"><circle cx="3" cy="3" r="2.5"/></g>
<g transform="translate(702,459) scale(4.635)"><path d="M6,5.5H3C1.6,5.5,0.5,4.4,0.5,3v0c0-1.4,1.1-2.5,2.5-2.5h3V5.5z"/></g>
<g transform="translate(729,459) scale(4.635)"><rect y="0.5" width="6" height="5"/></g>
<g transform="translate(756,459) scale(4.635)"><path d="M3,5.5H0v-5h3c1.4,0,2.5,1.1,2.5,2.5v0C5.5,4.4,4.4,5.5,3,5.5z"/></g>
<g transform="translate(810,459) scale(4.635)"><path d="M6,5.5H3C1.6,5.5,0.5,4.4,0.5,3v0c0-1.4,1.1-2.5,2.5-2.5h3V5.5z"/></g>
<g transform="translate(837,459) scale(4.635)"><rect y="0.5" width="6" height="5"/></g>
<g transform="translate(864,459) scale(4.635)"><path d="M3,5.5H0v-5h3c1.4,0,2.5,1.1,2.5,2.5v0C5.5,4.4,4.4,5.5,3,5.5z"/></g>
<g transform="translate(54,486) scale(4.635)"><path d="M6,5.5H3C1.6,5.5,0.5,4.4,0.5,3v0c0-1.4,1.1-2.5,2.5-2.5h3V5.5z"/></g>
<g transform="translate(81,486) scale(4.635)"><rect y="0.5" width="6" height="5"/></g>
<g transform="translate(108,486) scale(4.635)"><path d="M3,5.5H0v-5h3c1.4,0,2.5,1.1,2.5,2.5v0C5.5,4.4,4.4,5.5,3,5.5z"/></g>
<g transform="translate(189,486) scale(4.635)"><path d="M6,5.5H3C1.6,5.5,0.5,4.4,0.5,3v0c0-1.4,1.1-2.5,2.5-2.5h3V5.5z"/></g>
<g transform="translate(216,486) scale(4.635)"><path d="M3,5.5H0v-5h3c1.4,0,2.5,1.1,2.5,2.5v0C5.5,4.4,4.4,5.5,3,5.5z"/></g>
<g transform="translate(270,486) scale(4.635)"><circle cx="3" cy="3" r="2.5"/></g>
<g transform="translate(324,486) scale(4.635)"><circle cx="3" cy="3" r="2.5"/></g>
<g transform="translate(405,486) scale(4.635)"><circle cx="3" cy="3" r="2.5"/></g>
<g transform="translate(459,486) scale(4.635)"><path d="M6,5.5H3C1.6,5.5,0.5,4.4,0.5,3v0c0-1.4,1.1-2.5,2.5-2.5h3V5.5z"/></g>
<g transform="translate(486,486) scale(4.635)"><rect y="0.5" width="6" height="5"/></g>
<g transform="translate(513,486) scale(4.635)"><rect y="0.5" width="6" height="5"/></g>
<g transform="translate(540,486) scale(4.635)"><path d="M3,5.5H0v-5h3c1.4,0,2.5,1.1,2.5,2.5v0C5.5,4.4,4.4,5.5,3,5.5z"/></g>
<g transform="translate(648,486) scale(4.635)"><circle cx="3" cy="3" r="2.5"/></g>
<g transform="translate(702,486) scale(4.635)"><path d="M6,5.5H3C1.6,5.5,0.5,4.4,0.5,3v0c0-1.4,1.1-2.5,2.5-2.5h3V5.5z"/></g>
<g transform="translate(729,486) scale(4.635)"><path d="M3,5.5H0v-5h3c1.4,0,2.5,1.1,2.5,2.5v0C5.5,4.4,4.4,5.5,3,5.5z"/></g>
<g transform="translate(783,486) scale(4.635)"><path d="M6,5.5H3C1.6,5.5,0.5,4.4,0.5,3v0c0-1.4,1.1-2.5,2.5-2.5h3V5.5z"/></g>
<g transform="translate(810,486) scale(4.635)"><path d="M3,5.5H0v-5h3c1.4,0,2.5,1.1,2.5,2.5v0C5.5,4.4,4.4,5.5,3,5.5z"/></g>
<g transform="translate(918,486) scale(4.635)"><circle cx="3" cy="3" r="2.5"/></g>
<g transform="translate(54,513) scale(4.635)"><circle cx="3" cy="3" r="2.5"/></g>
<g transform="translate(108,513) scale(4.635)"><circle cx="3" cy="3" r="2.5"/></g>
<g transform="translate(162,513) scale(4.635)"><circle cx="3" cy="3" r="2.5"/></g>
<g transform="translate(243,513) scale(4.635)"><circle cx="3" cy="3" r="2.5"/></g>
<g transform="translate(297,513) scale(4.635)"><circle cx="3" cy="3" r="2.5"/></g>
<g transform="translate(351,513) scale(4.635)"><circle cx="3" cy="3" r="2.5"/></g>
<g transform="translate(459,513) scale(4.635)"><circle cx="3" cy="3" r="2.5"/></g>
<g transform="translate(540,513) scale(4.635)"><path d="M6,5.5H3C1.6,5.5,0.5,4.4,0.5,3v0c0-1.4,1.1-2.5,2.5-2.5h3V5.5z"/></g>
<g transform="translate(567,513) scale(4.635)"><rect y="0.5" width="6" height="5"/></g>
<g transform="translate(594,513) scale(4.635)"><rect y="0.5" width="6" height="5"/></g>
<g transform="translate(621,513) scale(4.635)"><rect y="0.5" width="6" height="5"/></g>
<g transform="translate(648,513) scale(4.635)"><rect y="0.5" width="6" height="5"/></g>
<g transform="translate(675,513) scale(4.635)"><rect y="0.5" width="6" height="5"/></g>
<g transform="translate(702,513) scale(4.635)"><rect y="0.5" width="6" height="5"/></g>
<g transform="translate(729,513) scale(4.635)"><rect y="0.5" width="6" height="5"/></g>
<g transform="translate(756,513) scale(4.635)"><rect y="0.5" width="6" height="5"/></g>
<g transform="translate(783,513) scale(4.635)"><path d="M3,5.5H0v-5h3c1.4,0,2.5,1.1,2.5,2.5v0C5.5,4.4,4.4,5.5,3,5.5z"/></g>
<g transform="translate(837,513) scale(4.635)"><path d="M6,5.5H3C1.6,5.5,0.5,4.4,0.5,3v0c0-1.4,1.1-2.5,2.5-2.5h3V5.5z"/></g>
<g transform="translate(864,513) scale(4.635)"><path d="M3,5.5H0v-5h3c1.4,0,2.5,1.1,2.5,2.5v0C5.5,4.4,4.4,5.5,3,5.5z"/></g>
<g transform="translate(918,513) scale(4.635)"><circle cx="3" cy="3" r="2.5"/></g>
<g transform="translate(81,540) scale(4.635)"><path d="M6,5.5H3C1.6,5.5,0.5,4.4,0.5,3v0c0-1.4,1.1-2.5,2.5-2.5h3V5.5z"/></g>
<g transform="translate(108,540) scale(4.635)"><path d="M3,5.5H0v-5h3c1.4,0,2.5,1.1,2.5,2.5v0C5.5,4.4,4.4,5.5,3,5.5z"/></g>
<g transform="translate(162,540) scale(4.635)"><circle cx="3" cy="3" r="2.5"/></g>
<g transform="translate(216,540) scale(4.635)"><circle cx="3" cy="3" r="2.5"/></g>
<g transform="translate(297,540) scale(4.635)"><path d="M6,5.5H3C1.6,5.5,0.5,4.4,0.5,3v0c0-1.4,1.1-2.5,2.5-2.5h3V5.5z"/></g>
<g transform="translate(324,540) scale(4.635)"><rect y="0.5" width="6" height="5"/></g>
<g transform="translate(351,540) scale(4.635)"><path d="M3,5.5H0v-5h3c1.4,0,2.5,1.1,2.5,2.5v0C5.5,4.4,4.4,5.5,3,5.5z"/></g>
<g transform="translate(405,540) scale(4.635)"><path d="M6,5.5H3C1.6,5.5,0.5,4.4,0.5,3v0c0-1.4,1.1-2.5,2.5-2.5h3V5.5z"/></g>
<g transform="translate(432,540) scale(4.635)"><path d="M3,5.5H0v-5h3c1.4,0,2.5,1.1,2.5,2.5v0C5.5,4.4,4.4,5.5,3,5.5z"/></g>
<g transform="translate(513,540) scale(4.635)"><circle cx="3" cy="3" r="2.5"/></g>
<g transform="translate(594,540) scale(4.635)"><path d="M6,5.5H3C1.6,5.5,0.5,4.4,0.5,3v0c0-1.4,1.1-2.5,2.5-2.5h3V5.5z"/></g>
<g transform="translate(621,540) scale(4.635)"><path d="M3,5.5H0v-5h3c1.4,0,2.5,1.1,2.5,2.5v0C5.5,4.4,4.4,5.5,3,5.5z"/></g>
<g transform="translate(729,540) scale(4.635)"><circle cx="3" cy="3" r="2.5"/></g>
<g transform="translate(783,540) scale(4.635)"><path d="M6,5.5H3C1.6,5.5,0.5,4.4,0.5,3v0c0-1.4,1.1-2.5,2.5-2.5h3V5.5z"/></g>
<g transform="translate(810,540) scale(4.635)"><path d="M3,5.5H0v-5h3c1.4,0,2.5,1.1,2.5,2.5v0C5.5,4.4,4.4,5.5,3,5.5z"/></g>
<g transform="translate(864,540) scale(4.635)"><path d="M6,5.5H3C1.6,5.5,0.5,4.4,0.5,3v0c0-1.4,1.1-2.5,2.5-2.5h3V5.5z"/></g>
<g transform="translate(891,540) scale(4.635)"><path d="M3,5.5H0v-5h3c1.4,0,2.5,1.1,2.5,2.5v0C5.5,4.4,4.4,5.5,3,5.5z"/></g>
<g transform="translate(54,567) scale(4.635)"><circle cx="3" cy="3" r="2.5"/></g>
<g transform="translate(162,567) scale(4.635)"><path d="M6,5.5H3C1.6,5.5,0.5,4.4,0.5,3v0c0-1.4,1.1-2.5,2.5-2.5h3V5.5z"/></g>
<g transform="translate(189,567) scale(4.635)"><path d="M3,5.5H0v-5h3c1.4,0,2.5,1.1,2.5,2.5v0C5.5,4.4,4.4,5.5,3,5.5z"/></g>
<g transform="translate(270,567) scale(4.635)"><path d="M6,5.5H3C1.6,5.5,0.5,4.4,0.5,3v0c0-1.4,1.1-2.5,2.5-2.5h3V5.5z"/></g>
<g transform="translate(297,567) scale(4.635)"><path d="M3,5.5H0v-5h3c1.4,0,2.5,1.1,2.5,2.5v0C5.5,4.4,4.4,5.5,3,5.5z"/></g>
<g transform="translate(351,567) scale(4.635)"><circle cx="3" cy="3" r="2.5"/></g>
<g transform="translate(432,567) scale(4.635)"><circle cx="3" cy="3" r="2.5"/></g>
<g transform="translate(513,567) scale(4.635)"><circle cx="3" cy="3" r="2.5"/></g>
<g transform="translate(567,567) scale(4.635)"><circle cx="3" cy="3" r="2.5"/></g>
<g transform="translate(621,567) scale(4.635)"><path d="M6,5.5H3C1.6,5.5,0.5,4.4,0.5,3v0c0-1.4,1.1-2.5,2.5-2.5h3V5.5z"/></g>
<g transform="translate(648,567) scale(4.635)"><rect y="0.5" width="6" height="5"/></g>
<g transform="translate(675,567) scale(4.635)"><path d="M3,5.5H0v-5h3c1.4,0,2.5,1.1,2.5,2.5v0C5.5,4.4,4.4,5.5,3,5.5z"/></g>
<g transform="translate(729,567) scale(4.635)"><path d="M6,5.5H3C1.6,5.5,0.5,4.4,0.5,3v0c0-1.4,1.1-2.5,2.5-2.5h3V5.5z"/></g>
<g transform="translate(756,567) scale(4.635)"><rect y="0.5" width="6" height="5"/></g>
<g transform="translate(783,567) scale(4.635)"><rect y="0.5" width="6" height="5"/></g>
<g transform="translate(810,567) scale(4.635)"><rect y="0.5" width="6" height="5"/></g>
<g transform="translate(837,567) scale(4.635)"><rect y="0.5" width="6" height="5"/></g>
<g transform="translate(864,567) scale(4.635)"><rect y="0.5" width="6" height="5"/></g>
<g transform="translate(891,567) scale(4.635)"><rect y="0.5" width="6" height="5"/></g>
<g transform="translate(918,567) scale(4.635)"><path d="M3,5.5H0v-5h3c1.4,0,2.5,1.1,2.5,2.5v0C5.5,4.4,4.4,5.5,3,5.5z"/></g>
<g transform="translate(54,594) scale(4.635)"><circle cx="3" cy="3" r="2.5"/></g>
<g transform="translate(108,594) scale(4.635)"><circle cx="3" cy="3" r="2.5"/></g>
<g transform="translate(162,594) scale(4.635)"><circle cx="3" cy="3" r="2.5"/></g>
<g transform="translate(216,594) scale(4.635)"><circle cx="3" cy="3" r="2.5"/></g>
<g transform="translate(270,594) scale(4.635)"><circle cx="3" cy="3" r="2.5"/></g>
<g transform="translate(432,594) scale(4.635)"><path d="M6,5.5H3C1.6,5.5,0.5,4.4,0.5,3v0c0-1.4,1.1-2.5,2.5-2.5h3V5.5z"/></g>
<g transform="translate(459,594) scale(4.635)"><path d="M3,5.5H0v-5h3c1.4,0,2.5,1.1,2.5,2.5v0C5.5,4.4,4.4,5.5,3,5.5z"/></g>
<g transform="translate(513,594) scale(4.635)"><circle cx="3" cy="3" r="2.5"/></g>
<g transform="translate(621,594) scale(4.635)"><circle cx="3" cy="3" r="2.5"/></g>
<g transform="translate(702,594) scale(4.635)"><circle cx="3" cy="3" r="2.5"/></g>
<g transform="translate(783,594) scale(4.635)"><path d="M6,5.5H3C1.6,5.5,0.5,4.4,0.5,3v0c0-1.4,1.1-2.5,2.5-2.5h3V5.5z"/></g>
<g transform="translate(810,594) scale(4.635)"><rect y="0.5" width="6" height="5"/></g>
<g transform="translate(837,594) scale(4.635)"><path d="M3,5.5H0v-5h3c1.4,0,2.5,1.1,2.5,2.5v0C5.5,4.4,4.4,5.5,3,5.5z"/></g>
<g transform="translate(54,621) scale(4.635)"><path d="M6,5.5H3C1.6,5.5,0.5,4.4,0.5,3v0c0-1.4,1.1-2.5,2.5-2.5h3V5.5z"/></g>
<g transform="translate(81,621) scale(4.635)"><path d="M3,5.5H0v-5h3c1.4,0,2.5,1.1,2.5,2.5v0C5.5,4.4,4.4,5.5,3,5.5z"/></g>
<g transform="translate(135,621) scale(4.635)"><path d="M6,5.5H3C1.6,5.5,0.5,4.4,0.5,3v0c0-1.4,1.1-2.5,2.5-2.5h3V5.5z"/></g>
<g transform="translate(162,621) scale(4.635)"><rect y="0.5" width="6" height="5"/></g>
<g transform="translate(189,621) scale(4.635)"><path d="M3,5.5H0v-5h3c1.4,0,2.5,1.1,2.5,2.5v0C5.5,4.4,4.4,5.5,3,5.5z"/></g>
<g transform="translate(243,621) scale(4.635)"><circle cx="3" cy="3" r="2.5"/></g>
<g transform="translate(351,621) scale(4.635)"><circle cx="3" cy="3" r="2.5"/></g>
<g transform="translate(405,621) scale(4.635)"><path d="M6,5.5H3C1.6,5.5,0.5,4.4,0.5,3v0c0-1.4,1.1-2.5,2.5-2.5h3V5.5z"/></g>
<g transform="translate(432,621) scale(4.635)"><rect y="0.5" width="6" height="5"/></g>
<g transform="translate(459,621) scale(4.635)"><rect y="0.5" width="6" height="5"/></g>
<g transform="translate(486,621) scale(4.635)"><rect y="0.5" width="6" height="5"/></g>
<g transform="translate(513,621) scale(4.635)"><path d="M3,5.5H0v-5h3c1.4,0,2.5,1.1,2.5,2.5v0C5.5,4.4,4.4,5.5,3,5.5z"/></g>
<g transform="translate(594,621) scale(4.635)"><path d="M6,5.5H3C1.6,5.5,0.5,4.4,0.5,3v0c0-1.4,1.1-2.5,2.5-2.5h3V5.5z"/></g>
<g transform="translate(621,621) scale(4.635)"><rect y="0.5" width="6" height="5"/></g>
<g transform="translate(648,621) scale(4.635)"><path d="M3,5.5H0v-5h3c1.4,0,2.5,1.1,2.5,2.5v0C5.5,4.4,4.4,5.5,3,5.5z"/></g>
<g transform="translate(756,621) scale(4.635)"><circle cx="3" cy="3" r="2.5"/></g>
<g transform="translate(837,621) scale(4.635)"><path d="M6,5.5H3C1.6,5.5,0.5,4.4,0.5,3v0c0-1.4,1.1-2.5,2.5-2.5h3V5.5z"/></g>
<g transform="translate(864,621) scale(4.635)"><path d="M3,5.5H0v-5h3c1.4,0,2.5,1.1,2.5,2.5v0C5.5,4.4,4.4,5.5,3,5.5z"/></g>
<g transform="translate(918,621) scale(4.635)"><circle cx="3" cy="3" r="2.5"/></g>
<g transform="translate(54,648) scale(4.635)"><circle cx="3" cy="3" r="2.5"/></g>
<g transform="translate(135,648) scale(4.635)"><circle cx="3" cy="3" r="2.5"/></g>
<g transform="translate(216,648) scale(4.635)"><path d="M6,5.5H3C1.6,5.5,0.5,4.4,0.5,3v0c0-1.4,1.1-2.5,2.5-2.5h3V5.5z"/></g>
<g transform="translate(243,648) scale(4.635)"><path d="M3,5.5H0v-5h3c1.4,0,2.5,1.1,2.5,2.5v0C5.5,4.4,4.4,5.5,3,5.5z"/></g>
<g transform="translate(297,648) scale(4.635)"><circle cx="3" cy="3" r="2.5"/></g>
<g transform="translate(378,648) scale(4.635)"><circle cx="3" cy="3" r="2.5"/></g>
<g transform="translate(459,648) scale(4.635)"><path d="M6,5.5H3C1.6,5.5,0.5,4.4,0.5,3v0c0-1.4,1.1-2.5,2.5-2.5h3V5.5z"/></g>
<g transform="translate(486,648) scale(4.635)"><rect y="0.5" width="6" height="5"/></g>
<g transform="translate(513,648) scale(4.635)"><rect y="0.5" width="6" height="5"/></g>
<g transform="translate(540,648) scale(4.635)"><rect y="0.5" width="6" height="5"/></g>
<g transform="translate(567,648) scale(4.635)"><path d="M3,5.5H0v-5h3c1.4,0,2.5,1.1,2.5,2.5v0C5.5,4.4,4.4,5.5,3,5.5z"/></g>
<g transform="translate(621,648) scale(4.635)"><path d="M6,5.5H3C1.6,5.5,0.5,4.4,0.5,3v0c0-1.4,1.1-2.5,2.5-2.5h3V5.5z"/></g>
<g transform="translate(648,648) scale(4.635)"><rect y="0.5" width="6" height="5"/></g>
<g transform="translate(675,648) scale(4.635)"><rect y="0.5" width="6" height="5"/></g>
<g transform="translate(702,648) scale(4.635)"><rect y="0.5" width="6" height="5"/></g>
<g transform="translate(729,648) scale(4.635)"><path d="M3,5.5H0v-5h3c1.4,0,2.5,1.1,2.5,2.5v0C5.5,4.4,4.4,5.5,3,5.5z"/></g>
<g transform="translate(783,648) scale(4.635)"><path d="M6,5.5H3C1.6,5.5,0.5,4.4,0.5,3v0c0-1.4,1.1-2.5,2.5-2.5h3V5.5z"/></g>
<g transform="translate(810,648) scale(4.635)"><path d="M3,5.5H0v-5h3c1.4,0,2.5,1.1,2.5,2.5v0C5.5,4.4,4.4,5.5,3,5.5z"/></g>
<g transform="translate(891,648) scale(4.635)"><circle cx="3" cy="3" r="2.5"/></g>
<g transform="translate(54,675) scale(4.635)"><circle cx="3" cy="3" r="2.5"/></g>
<g transform="translate(162,675) scale(4.635)"><path d="M6,5.5H3C1.6,5.5,0.5,4.4,0.5,3v0c0-1.4,1.1-2.5,2.5-2.5h3V5.5z"/></g>
<g transform="translate(189,675) scale(4.635)"><path d="M3,5.5H0v-5h3c1.4,0,2.5,1.1,2.5,2.5v0C5.5,4.4,4.4,5.5,3,5.5z"/></g>
<g transform="translate(297,675) scale(4.635)"><path d="M6,5.5H3C1.6,5.5,0.5,4.4,0.5,3v0c0-1.4,1.1-2.5,2.5-2.5h3V5.5z"/></g>
<g transform="translate(324,675) scale(4.635)"><path d="M3,5.5H0v-5h3c1.4,0,2.5,1.1,2.5,2.5v0C5.5,4.4,4.4,5.5,3,5.5z"/></g>
<g transform="translate(405,675) scale(4.635)"><circle cx="3" cy="3" r="2.5"/></g>
<g transform="translate(459,675) scale(4.635)"><circle cx="3" cy="3" r="2.5"/></g>
<g transform="translate(567,675) scale(4.635)"><path d="M6,5.5H3C1.6,5.5,0.5,4.4,0.5,3v0c0-1.4,1.1-2.5,2.5-2.5h3V5.5z"/></g>
<g transform="translate(594,675) scale(4.635)"><rect y="0.5" width="6" height="5"/></g>
<g transform="translate(621,675) scale(4.635)"><path d="M3,5.5H0v-5h3c1.4,0,2.5,1.1,2.5,2.5v0C5.5,4.4,4.4,5.5,3,5.5z"/></g>
<g transform="translate(675,675) scale(4.635)"><circle cx="3" cy="3" r="2.5"/></g>
<g transform="translate(729,675) scale(4.635)"><path d="M6,5.5H3C1.6,5.5,0.5,4.4,0.5,3v0c0-1.4,1.1-2.5,2.5-2.5h3V5.5z"/></g>
<g transform="translate(756,675) scale(4.635)"><path d="M3,5.5H0v-5h3c1.4,0,2.5,1.1,2.5,2.5v0C5.5,4.4,4.4,5.5,3,5.5z"/></g>
<g transform="translate(810,675) scale(4.635)"><path d="M6,5.5H3C1.6,5.5,0.5,4.4,0.5,3v0c0-1.4,1.1-2.5,2.5-2.5h3V5.5z"/></g>
<g transform="translate(837,675) scale(4.635)"><rect y="0.5" width="6" height="5"/></g>
<g transform="translate(864,675) scale(4.635)"><rect y="0.5" width="6" height="5"/></g>
<g transform="translate(891,675) scale(4.635)"><path d="M3,5.5H0v-5h3c1.4,0,2.5,1.1,2.5,2.5v0C5.5,4.4,4.4,5.5,3,5.5z"/></g>
<g transform="translate(54,702) scale(4.635)"><circle cx="3" cy="3" r="2.5"/></g>
<g transform="translate(135,702) scale(4.635)"><circle cx="3" cy="3" r="2.5"/></g>
<g transform="translate(189,702) scale(4.635)"><path d="M6,5.5H3C1.6,5.5,0.5,4.4,0.5,3v0c0-1.4,1.1-2.5,2.5-2.5h3V5.5z"/></g>
<g transform="translate(216,702) scale(4.635)"><path d="M3,5.5H0v-5h3c1.4,0,2.5,1.1,2.5,2.5v0C5.5,4.4,4.4,5.5,3,5.5z"/></g>
<g transform="translate(270,702) scale(4.635)"><path d="M6,5.5H3C1.6,5.5,0.5,4.4,0.5,3v0c0-1.4,1.1-2.5,2.5-2.5h3V5.5z"/></g>
<g transform="translate(297,702) scale(4.635)"><path d="M3,5.5H0v-5h3c1.4,0,2.5,1.1,2.5,2.5v0C5.5,4.4,4.4,5.5,3,5.5z"/></g>
<g transform="translate(378,702) scale(4.635)"><circle cx="3" cy="3" r="2.5"/></g>
<g transform="translate(432,702) scale(4.635)"><path d="M6,5.5H3C1.6,5.5,0.5,4.4,0.5,3v0c0-1.4,1.1-2.5,2.5-2.5h3V5.5z"/></g>
<g transform="translate(459,702) scale(4.635)"><rect y="0.5" width="6" height="5"/></g>
<g transform="translate(486,702) scale(4.635)"><rect y="0.5" width="6" height="5"/></g>
<g transform="translate(513,702) scale(4.635)"><path d="M3,5.5H0v-5h3c1.4,0,2.5,1.1,2.5,2.5v0C5.5,4.4,4.4,5.5,3,5.5z"/></g>
<g transform="translate(567,702) scale(4.635)"><path d="M6,5.5H3C1.6,5.5,0.5,4.4,0.5,3v0c0-1.4,1.1-2.5,2.5-2.5h3V5.5z"/></g>
<g transform="translate(594,702) scale(4.635)"><path d="M3,5.5H0v-5h3c1.4,0,2.5,1.1,2.5,2.5v0C5.5,4.4,4.4,5.5,3,5.5z"/></g>
<g transform="translate(648,702) scale(4.635)"><path d="M6,5.5H3C1.6,5.5,0.5,4.4,0.5,3v0c0-1.4,1.1-2.5,2.5-2.5h3V5.5z"/></g>
<g transform="translate(675,702) scale(4.635)"><rect y="0.5" width="6" height="5"/></g>
<g transform="translate(702,702) scale(4.635)"><rect y="0.5" width="6" height="5"/></g>
<g transform="translate(729,702) scale(4.635)"><rect y="0.5" width="6" height="5"/></g>
<g transform="translate(756,702) scale(4.635)"><rect y="0.5" width="6" height="5"/></g>
<g transform="translate(783,702) scale(4.635)"><rect y="0.5" width="6" height="5"/></g>
<g transform="translate(810,702) scale(4.635)"><path d="M3,5.5H0v-5h3c1.4,0,2.5,1.1,2.5,2.5v0C5.5,4.4,4.4,5.5,3,5.5z"/></g>
<g transform="translate(270,729) scale(4.635)"><path d="M6,5.5H3C1.6,5.5,0.5,4.4,0.5,3v0c0-1.4,1.1-2.5,2.5-2.5h3V5.5z"/></g>
<g transform="translate(297,729) scale(4.635)"><path d="M3,5.5H0v-5h3c1.4,0,2.5,1.1,2.5,2.5v0C5.5,4.4,4.4,5.5,3,5.5z"/></g>
<g transform="translate(351,729) scale(4.635)"><path d="M6,5.5H3C1.6,5.5,0.5,4.4,0.5,3v0c0-1.4,1.1-2.5,2.5-2.5h3V5.5z"/></g>
<g transform="translate(378,729) scale(4.635)"><path d="M3,5.5H0v-5h3c1.4,0,2.5,1.1,2.5,2.5v0C5.5,4.4,4.4,5.5,3,5.5z"/></g>
<g transform="translate(432,729) scale(4.635)"><circle cx="3" cy="3" r="2.5"/></g>
<g transform="translate(486,729) scale(4.635)"><path d="M6,5.5H3C1.6,5.5,0.5,4.4,0.5,3v0c0-1.4,1.1-2.5,2.5-2.5h3V5.5z"/></g>
<g transform="translate(513,729) scale(4.635)"><rect y="0.5" width="6" height="5"/></g>
<g transform="translate(540,729) scale(4.635)"><rect y="0.5" width="6" height="5"/></g>
<g transform="translate(567,729) scale(4.635)"><rect y="0.5" width="6" height="5"/></g>
<g transform="translate(594,729) scale(4.635)"><path d="M3,5.5H0v-5h3c1.4,0,2.5,1.1,2.5,2.5v0C5.5,4.4,4.4,5.5,3,5.5z"/></g>
<g transform="translate(675,729) scale(4.635)"><path d="M6,5.5H3C1.6,5.5,0.5,4.4,0.5,3v0c0-1.4,1.1-2.5,2.5-2.5h3V5.5z"/></g>
<g transform="translate(702,729) scale(4.635)"><path d="M3,5.5H0v-5h3c1.4,0,2.5,1.1,2.5,2.5v0C5.5,4.4,4.4,5.5,3,5.5z"/></g>
<g transform="translate(810,729) scale(4.635)"><circle cx="3" cy="3" r="2.5"/></g>
<g transform="translate(864,729) scale(4.635)"><path d="M6,5.5H3C1.6,5.5,0.5,4.4,0.5,3v0c0-1.4,1.1-2.5,2.5-2.5h3V5.5z"/></g>
<g transform="translate(891,729) scale(4.635)"><rect y="0.5" width="6" height="5"/></g>
<g transform="translate(918,729) scale(4.635)"><path d="M3,5.5H0v-5h3c1.4,0,2.5,1.1,2.5,2.5v0C5.5,4.4,4.4,5.5,3,5.5z"/></g>
<g transform="translate(270,756) scale(4.635)"><path d="M6,5.5H3C1.6,5.5,0.5,4.4,0.5,3v0c0-1.4,1.1-2.5,2.5-2.5h3V5.5z"/></g>
<g transform="translate(297,756) scale(4.635)"><path d="M3,5.5H0v-5h3c1.4,0,2.5,1.1,2.5,2.5v0C5.5,4.4,4.4,5.5,3,5.5z"/></g>
<g transform="translate(351,756) scale(4.635)"><path d="M6,5.5H3C1.6,5.5,0.5,4.4,0.5,3v0c0-1.4,1.1-2.5,2.5-2.5h3V5.5z"/></g>
<g transform="translate(378,756) scale(4.635)"><rect y="0.5" width="6" height="5"/></g>
<g transform="translate(405,756) scale(4.635)"><rect y="0.5" width="6" height="5"/></g>
<g transform="translate(432,756) scale(4.635)"><path d="M3,5.5H0v-5h3c1.4,0,2.5,1.1,2.5,2.5v0C5.5,4.4,4.4,5.5,3,5.5z"/></g>
<g transform="translate(513,756) scale(4.635)"><path d="M6,5.5H3C1.6,5.5,0.5,4.4,0.5,3v0c0-1.4,1.1-2.5,2.5-2.5h3V5.5z"/></g>
<g transform="translate(540,756) scale(4.635)"><path d="M3,5.5H0v-5h3c1.4,0,2.5,1.1,2.5,2.5v0C5.5,4.4,4.4,5.5,3,5.5z"/></g>
<g transform="translate(594,756) scale(4.635)"><circle cx="3" cy="3" r="2.5"/></g>
<g transform="translate(648,756) scale(4.635)"><path d="M6,5.5H3C1.6,5.5,0.5,4.4,0.5,3v0c0-1.4,1.1-2.5,2.5-2.5h3V5.5z"/></g>
<g transform="translate(675,756) scale(4.635)"><rect y="0.5" width="6" height="5"/></g>
<g transform="translate(702,756) scale(4.635)"><path d="M3,5.5H0v-5h3c1.4,0,2.5,1.1,2.5,2.5v0C5.5,4.4,4.4,5.5,3,5.5z"/></g>
<g transform="translate(756,756) scale(4.635)"><circle cx="3" cy="3" r="2.5"/></g>
<g transform="translate(810,756) scale(4.635)"><circle cx="3" cy="3" r="2.5"/></g>
<g transform="translate(864,756) scale(4.635)"><path d="M6,5.5H3C1.6,5.5,0.5,4.4,0.5,3v0c0-1.4,1.1-2.5,2.5-2.5h3V5.5z"/></g>
<g transform="translate(891,756) scale(4.635)"><path d="M3,5.5H0v-5h3c1.4,0,2.5,1.1,2.5,2.5v0C5.5,4.4,4.4,5.5,3,5.5z"/></g>
<g transform="translate(270,783) scale(4.635)"><path d="M6,5.5H3C1.6,5.5,0.5,4.4,0.5,3v0c0-1.4,1.1-2.5,2.5-2.5h3V5.5z"/></g>
<g transform="translate(297,783) scale(4.635)"><path d="M3,5.5H0v-5h3c1.4,0,2.5,1.1,2.5,2.5v0C5.5,4.4,4.4,5.5,3,5.5z"/></g>
<g transform="translate(351,783) scale(4.635)"><path d="M6,5.5H3C1.6,5.5,0.5,4.4,0.5,3v0c0-1.4,1.1-2.5,2.5-2.5h3V5.5z"/></g>
<g transform="translate(378,783) scale(4.635)"><path d="M3,5.5H0v-5h3c1.4,0,2.5,1.1,2.5,2.5v0C5.5,4.4,4.4,5.5,3,5.5z"/></g>
<g transform="translate(459,783) scale(4.635)"><circle cx="3" cy="3" r="2.5"/></g>
<g transform="translate(513,783) scale(4.635)"><path d="M6,5.5H3C1.6,5.5,0.5,4.4,0.5,3v0c0-1.4,1.1-2.5,2.5-2.5h3V5.5z"/></g>
<g transform="translate(540,783) scale(4.635)"><path d="M3,5.5H0v-5h3c1.4,0,2.5,1.1,2.5,2.5v0C5.5,4.4,4.4,5.5,3,5.5z"/></g>
<g transform="translate(594,783) scale(4.635)"><circle cx="3" cy="3" r="2.5"/></g>
<g transform="translate(675,783) scale(4.635)"><path d="M6,5.5H3C1.6,5.5,0.5,4.4,0.5,3v0c0-1.4,1.1-2.5,2.5-2.5h3V5.5z"/></g>
<g transform="translate(702,783) scale(4.635)"><path d="M3,5.5H0v-5h3c1.4,0,2.5,1.1,2.5,2.5v0C5.5,4.4,4.4,5.5,3,5.5z"/></g>
<g transform="translate(810,783) scale(4.635)"><path d="M6,5.5H3C1.6,5.5,0.5,4.4,0.5,3v0c0-1.4,1.1-2.5,2.5-2.5h3V5.5z"/></g>
<g transform="translate(837,783) scale(4.635)"><rect y="0.5" width="6" height="5"/></g>
<g transform="translate(864,783) scale(4.635)"><rect y="0.5" width="6" height="5"/></g>
<g transform="translate(891,783) scale(4.635)"><path d="M3,5.5H0v-5h3c1.4,0,2.5,1.1,2.5,2.5v0C5.5,4.4,4.4,5.5,3,5.5z"/></g>
<g transform="translate(270,810) scale(4.635)"><circle cx="3" cy="3" r="2.5"/></g>
<g transform="translate(324,810) scale(4.635)"><circle cx="3" cy="3" r="2.5"/></g>
<g transform="translate(405,810) scale(4.635)"><circle cx="3" cy="3" r="2.5"/></g>
<g transform="translate(459,810) scale(4.635)"><path d="M6,5.5H3C1.6,5.5,0.5,4.4,0.5,3v0c0-1.4,1.1-2.5,2.5-2.5h3V5.5z"/></g>
<g transform="translate(486,810) scale(4.635)"><path d="M3,5.5H0v-5h3c1.4,0,2.5,1.1,2.5,2.5v0C5.5,4.4,4.4,5.5,3,5.5z"/></g>
<g transform="translate(540,810) scale(4.635)"><path d="M6,5.5H3C1.6,5.5,0.5,4.4,0.5,3v0c0-1.4,1.1-2.5,2.5-2.5h3V5.5z"/></g>
<g transform="translate(567,810) scale(4.635)"><rect y="0.5" width="6" height="5"/></g>
<g transform="translate(594,810) scale(4.635)"><rect y="0.5" width="6" height="5"/></g>
<g transform="translate(621,810) scale(4.635)"><rect y="0.5" width="6" height="5"/></g>
<g transform="translate(648,810) scale(4.635)"><path d="M3,5.5H0v-5h3c1.4,0,2.5,1.1,2.5,2.5v0C5.5,4.4,4.4,5.5,3,5.5z"/></g>
<g transform="translate(702,810) scale(4.635)"><path d="M6,5.5H3C1.6,5.5,0.5,4.4,0.5,3v0c0-1.4,1.1-2.5,2.5-2.5h3V5.5z"/></g>
<g transform="translate(729,810) scale(4.635)"><rect y="0.5" width="6" height="5"/></g>
<g transform="translate(756,810) scale(4.635)"><rect y="0.5" width="6" height="5"/></g>
<g transform="translate(783,810) scale(4.635)"><rect y="0.5" width="6" height="5"/></g>
<g transform="translate(810,810) scale(4.635)"><rect y="0.5" width="6" height="5"/></g>
<g transform="translate(837,810) scale(4.635)"><path d="M3,5.5H0v-5h3c1.4,0,2.5,1.1,2.5,2.5v0C5.5,4.4,4.4,5.5,3,5.5z"/></g>
<g transform="translate(891,810) scale(4.635)"><circle cx="3" cy="3" r="2.5"/></g>
<g transform="translate(270,837) scale(4.635)"><path d="M6,5.5H3C1.6,5.5,0.5,4.4,0.5,3v0c0-1.4,1.1-2.5,2.5-2.5h3V5.5z"/></g>
<g transform="translate(297,837) scale(4.635)"><path d="M3,5.5H0v-5h3c1.4,0,2.5,1.1,2.5,2.5v0C5.5,4.4,4.4,5.5,3,5.5z"/></g>
<g transform="translate(351,837) scale(4.635)"><path d="M6,5.5H3C1.6,5.5,0.5,4.4,0.5,3v0c0-1.4,1.1-2.5,2.5-2.5h3V5.5z"/></g>
<g transform="translate(378,837) scale(4.635)"><rect y="0.5" width="6" height="5"/></g>
<g transform="translate(405,837) scale(4.635)"><rect y="0.5" width="6" height="5"/></g>
<g transform="translate(432,837) scale(4.635)"><path d="M3,5.5H0v-5h3c1.4,0,2.5,1.1,2.5,2.5v0C5.5,4.4,4.4,5.5,3,5.5z"/></g>
<g transform="translate(486,837) scale(4.635)"><circle cx="3" cy="3" r="2.5"/></g>
<g transform="translate(675,837) scale(4.635)"><circle cx="3" cy="3" r="2.5"/></g>
<g transform="translate(729,837) scale(4.635)"><circle cx="3" cy="3" r="2.5"/></g>
<g transform="translate(810,837) scale(4.635)"><path d="M6,5.5H3C1.6,5.5,0.5,4.4,0.5,3v0c0-1.4,1.1-2.5,2.5-2.5h3V5.5z"/></g>
<g transform="translate(837,837) scale(4.635)"><rect y="0.5" width="6" height="5"/></g>
<g transform="translate(864,837) scale(4.635)"><path d="M3,5.5H0v-5h3c1.4,0,2.5,1.1,2.5,2.5v0C5.5,4.4,4.4,5.5,3,5.5z"/></g>
<g transform="translate(918,837) scale(4.635)"><circle cx="3" cy="3" r="2.5"/></g>
<g transform="translate(270,864) scale(4.635)"><path d="M6,5.5H3C1.6,5.5,0.5,4.4,0.5,3v0c0-1.4,1.1-2.5,2.5-2.5h3V5.5z"/></g>
<g transform="translate(297,864) scale(4.635)"><rect y="0.5" width="6" height="5"/></g>
<g transform="translate(324,864) scale(4.635)"><path d="M3,5.5H0v-5h3c1.4,0,2.5,1.1,2.5,2.5v0C5.5,4.4,4.4,5.5,3,5.5z"/></g>
<g transform="translate(378,864) scale(4.635)"><circle cx="3" cy="3" r="2.5"/></g>
<g transform="translate(459,864) scale(4.635)"><path d="M6,5.5H3C1.6,5.5,0.5,4.4,0.5,3v0c0-1.4,1.1-2.5,2.5-2.5h3V5.5z"/></g>
<g transform="translate(486,864) scale(4.635)"><path d="M3,5.5H0v-5h3c1.4,0,2.5,1.1,2.5,2.5v0C5.5,4.4,4.4,5.5,3,5.5z"/></g>
<g transform="translate(594,864) scale(4.635)"><path d="M6,5.5H3C1.6,5.5,0.5,4.4,0.5,3v0c0-1.4,1.1-2.5,2.5-2.5h3V5.5z"/></g>
<g transform="translate(621,864) scale(4.635)"><path d="M3,5.5H0v-5h3c1.4,0,2.5,1.1,2.5,2.5v0C5.5,4.4,4.4,5.5,3,5.5z"/></g>
<g transform="translate(675,864) scale(4.635)"><path d="M6,5.5H3C1.6,5.5,0.5,4.4,0.5,3v0c0-1.4,1.1-2.5,2.5-2.5h3V5.5z"/></g>
<g transform="translate(702,864) scale(4.635)"><rect y="0.5" width="6" height="5"/></g>
<g transform="translate(729,864) scale(4.635)"><rect y="0.5" width="6" height="5"/></g>
<g transform="translate(756,864) scale(4.635)"><rect y="0.5" width="6" height="5"/></g>
<g transform="translate(783,864) scale(4.635)"><path d="M3,5.5H0v-5h3c1.4,0,2.5,1.1,2.5,2.5v0C5.5,4.4,4.4,5.5,3,5.5z"/></g>
<g transform="translate(837,864) scale(4.635)"><path d="M6,5.5H3C1.6,5.5,0.5,4.4,0.5,3v0c0-1.4,1.1-2.5,2.5-2.5h3V5.5z"/></g>
<g transform="translate(864,864) scale(4.635)"><path d="M3,5.5H0v-5h3c1.4,0,2.5,1.1,2.5,2.5v0C5.5,4.4,4.4,5.5,3,5.5z"/></g>
<g transform="translate(270,891) scale(4.635)"><circle cx="3" cy="3" r="2.5"/></g>
<g transform="translate(432,891) scale(4.635)"><path d="M6,5.5H3C1.6,5.5,0.5,4.4,0.5,3v0c0-1.4,1.1-2.5,2.5-2.5h3V5.5z"/></g>
<g transform="translate(459,891) scale(4.635)"><path d="M3,5.5H0v-5h3c1.4,0,2.5,1.1,2.5,2.5v0C5.5,4.4,4.4,5.5,3,5.5z"/></g>
<g transform="translate(513,891) scale(4.635)"><path d="M6,5.5H3C1.6,5.5,0.5,4.4,0.5,3v0c0-1.4,1.1-2.5,2.5-2.5h3V5.5z"/></g>
<g transform="translate(540,891) scale(4.635)"><path d="M3,5.5H0v-5h3c1.4,0,2.5,1.1,2.5,2.5v0C5.5,4.4,4.4,5.5,3,5.5z"/></g>
<g transform="translate(621,891) scale(4.635)"><circle cx="3" cy="3" r="2.5"/></g>
<g transform="translate(702,891) scale(4.635)"><path d="M6,5.5H3C1.6,5.5,0.5,4.4,0.5,3v0c0-1.4,1.1-2.5,2.5-2.5h3V5.5z"/></g>
<g transform="translate(729,891) scale(4.635)"><rect y="0.5" width="6" height="5"/></g>
<g transform="translate(756,891) scale(4.635)"><path d="M3,5.5H0v-5h3c1.4,0,2.5,1.1,2.5,2.5v0C5.5,4.4,4.4,5.5,3,5.5z"/></g>
<g transform="translate(810,891) scale(4.635)"><circle cx="3" cy="3" r="2.5"/></g>
<g transform="translate(864,891) scale(4.635)"><circle cx="3" cy="3" r="2.5"/></g>
<g transform="translate(297,918) scale(4.635)"><circle cx="3" cy="3" r="2.5"/></g>
<g transform="translate(378,918) scale(4.635)"><circle cx="3" cy="3" r="2.5"/></g>
<g transform="translate(432,918) scale(4.635)"><path d="M6,5.5H3C1.6,5.5,0.5,4.4,0.5,3v0c0-1.4,1.1-2.5,2.5-2.5h3V5.5z"/></g>
<g transform="translate(459,918) scale(4.635)"><path d="M3,5.5H0v-5h3c1.4,0,2.5,1.1,2.5,2.5v0C5.5,4.4,4.4,5.5,3,5.5z"/></g>
<g transform="translate(513,918) scale(4.635)"><path d="M6,5.5H3C1.6,5.5,0.5,4.4,0.5,3v0c0-1.4,1.1-2.5,2.5-2.5h3V5.5z"/></g>
<g transform="translate(540,918) scale(4.635)"><path d="M3,5.5H0v-5h3c1.4,0,2.5,1.1,2.5,2.5v0C5.5,4.4,4.4,5.5,3,5.5z"/></g>
<g transform="translate(648,918) scale(4.635)"><circle cx="3" cy="3" r="2.5"/></g>
<g transform="translate(702,918) scale(4.635)"><path d="M6,5.5H3C1.6,5.5,0.5,4.4,0.5,3v0c0-1.4,1.1-2.5,2.5-2.5h3V5.5z"/></g>
<g transform="translate(729,918) scale(4.635)"><rect y="0.5" width="6" height="5"/></g>
<g transform="translate(756,918) scale(4.635)"><rect y="0.5" width="6" height="5"/></g>
<g transform="translate(783,918) scale(4.635)"><path d="M3,5.5H0v-5h3c1.4,0,2.5,1.1,2.5,2.5v0C5.5,4.4,4.4,5.5,3,5.5z"/></g>
<g transform="translate(891,918) scale(4.635)"><circle cx="3" cy="3" r="2.5"/></g>
<g transform="translate(54,54)"><g transform="scale(13.5)"><path d="M0,0l0,7c0,3.9,3.1,7,7,7h7V7c0-3.9-3.1-7-7-7H0z M12,12H7c-2.8,0-5-2.2-5-5V2h5c2.8,0,5,2.2,5,5V12z"/></g></g>
<g transform="translate(756,54)"><g transform="scale(13.5) rotate(90 7 7)"><path d="M0,0l0,7c0,3.9,3.1,7,7,7h7V7c0-3.9-3.1-7-7-7H0z M12,12H7c-2.8,0-5-2.2-5-5V2h5c2.8,0,5,2.2,5,5V12z"/></g></g>
<g transform="translate(54,756)"><g transform="scale(13.5) rotate(-90 7 7)"><path d="M0,0l0,7c0,3.9,3.1,7,7,7h7V7c0-3.9-3.1-7-7-7H0z M12,12H7c-2.8,0-5-2.2-5-5V2h5c2.8,0,5,2.2,5,5V12z"/></g></g>
<g transform="translate(108,108)"><g transform="scale(13.5)"><path d="M6,6H3C1.3,6,0,4.7,0,3l0-3l3,0c1.7,0,3,1.3,3,3V6z"/></g></g>
<g transform="translate(810,108)"><g transform="scale(13.5) rotate(90 3 3)"><path d="M6,6H3C1.3,6,0,4.7,0,3l0-3l3,0c1.7,0,3,1.3,3,3V6z"/></g></g>
<g transform="translate(108,810)"><g transform="scale(13.5) rotate(-90 3 3)"><path d="M6,6H3C1.3,6,0,4.7,0,3l0-3l3,0c1.7,0,3,1.3,3,3V6z"/></g></g>
</g></svg>
